<svg width="164" height="44" viewBox="0 0 164 44" fill="none" xmlns="http://www.w3.org/2000/svg">
<g clip-path="url(#clip0_2756_4308)">
<path d="M0.354627 31.9914C0.354627 25.5356 4.39165 20.9375 10.3681 20.9375C14.7288 20.9375 16.9092 23.763 17.5139 24.8511H17.7572V21.4615H20.9863V38.6504C20.9863 39.2972 21.3903 39.6181 22.0351 39.6181H23.0036V42.4412H20.9437C19.2074 42.4412 17.9153 41.15 17.8752 39.3348V39.1343H17.6318C17.1074 39.9817 15.1679 42.9677 10.6065 42.9677C4.58986 42.9677 0.349609 38.4072 0.349609 31.994L0.354627 31.9914ZM17.8777 32.0341C17.8777 26.8293 14.6485 23.8433 10.732 23.8433C6.61465 23.8433 3.6264 27.2329 3.6264 32.0341C3.6264 36.8352 6.73508 40.1045 10.7721 40.1045C15.1729 40.1045 17.8777 36.4341 17.8777 32.0341Z" fill="white" stroke="white" stroke-width="1.24658" stroke-miterlimit="10"/>
<path d="M25.8306 38.5295L38.6292 24.4068V24.1636H26.1919V21.4609H41.6149V25.3746L28.8164 39.4972V39.7404H41.8181V42.4431H25.8281V38.5295H25.8306Z" fill="white" stroke="white" stroke-width="1.24658" stroke-miterlimit="10"/>
<path d="M44.2427 32.0341C44.2427 25.3375 48.8468 20.9375 54.4168 20.9375C60.7572 20.9375 64.3902 25.3751 64.3902 31.6705V32.8414H47.512C47.5521 37.5222 50.297 40.1446 54.6577 40.1446C57.6058 40.1446 60.3105 38.4498 60.998 35.5441L64.1067 36.2711C62.935 40.1848 59.4625 42.9677 54.6176 42.9677C48.2371 42.9677 44.2402 38.4899 44.2402 32.0341H44.2427ZM61.121 30.259C60.9202 25.9016 57.8918 23.8032 54.4194 23.8032C50.9469 23.8032 47.8382 26.3053 47.5948 30.259H61.121Z" fill="white" stroke="white" stroke-width="1.24658" stroke-miterlimit="10"/>
<path d="M68.0254 21.4615H71.2144V24.5277H71.4577C72.3459 22.6323 74.6066 20.9375 77.8783 20.9375C82.7634 20.9375 85.7115 24.6079 85.7115 29.2486V42.4412H82.5225V29.4492C82.5225 26.0997 80.0587 23.921 77.1131 23.921C73.8012 23.921 71.2169 26.4632 71.2169 29.9331V42.4412H68.0279V21.4615H68.0254Z" fill="white" stroke="white" stroke-width="1.24658" stroke-miterlimit="10"/>
<path d="M92.4919 36.4711V24.1661H88.5352V21.4634H92.6951V15.3711H95.6834V21.4634H102.144V24.1661H95.6834V36.431C95.6834 38.6899 96.6117 39.6577 98.8322 39.6577H101.861V42.4406H98.8723C95.036 42.4406 92.4919 40.7057 92.4919 36.4686V36.4711Z" fill="white" stroke="white" stroke-width="1.24658" stroke-miterlimit="10"/>
<path d="M108.722 24.166H104.766V21.4633H111.911V42.443H108.722V24.166ZM107.997 15.3283C107.997 14.0372 108.966 13.0293 110.298 13.0293C111.63 13.0293 112.639 14.0372 112.639 15.3283C112.639 16.6195 111.67 17.6675 110.298 17.6675C108.926 17.6675 107.997 16.6596 107.997 15.3283Z" fill="white" stroke="white" stroke-width="1.24658" stroke-miterlimit="10"/>
<path d="M116.271 31.9513C116.271 25.6158 120.996 20.9375 127.253 20.9375C133.511 20.9375 138.195 25.6584 138.195 31.9513C138.195 38.2442 133.511 42.9652 127.213 42.9652C120.916 42.9652 116.271 38.3245 116.271 31.9513ZM134.926 31.9513C134.926 27.3106 131.737 23.8408 127.213 23.8408C122.69 23.8408 119.541 27.3507 119.541 31.9513C119.541 36.5519 122.73 40.0619 127.213 40.0619C131.697 40.0619 134.926 36.6322 134.926 31.9513Z" fill="white" stroke="white" stroke-width="1.24658" stroke-miterlimit="10"/>
<path d="M142.299 27.7637V10.2438C142.299 4.59024 146.893 0.00219345 152.548 0.00219345V17.522C152.548 23.1756 147.954 27.7637 142.299 27.7637Z" fill="#2ED88E"/>
<path d="M153.748 17.5201V0.000225067C159.406 0.000225067 163.997 4.5908 163.997 10.2419V27.7617C158.34 27.7617 153.748 23.1711 153.748 17.5201Z" fill="#2ED88E"/>
</g>
<defs>
<clipPath id="clip0_2756_4308">
<rect width="164" height="43.3207" fill="white"/>
</clipPath>
</defs>
</svg>
