<svg width="458" height="435" viewBox="0 0 458 435" fill="none" xmlns="http://www.w3.org/2000/svg">
<mask id="mask0_1959_10181" style="mask-type:alpha" maskUnits="userSpaceOnUse" x="0" y="0" width="458" height="435">
<rect y="0.341797" width="458" height="434.156" fill="#D9D9D9"/>
</mask>
<g mask="url(#mask0_1959_10181)">
<path d="M510.467 17.6545C499.447 6.49354 484.153 0.34375 467.405 0.34375C433.043 0.34375 407.137 26.3486 407.137 60.8295C407.137 95.3105 432.397 121.308 467.194 121.308C501.991 121.308 527.462 95.3105 527.462 60.8295C527.462 44.0881 521.424 28.7593 510.467 17.6545ZM505.315 60.8295C505.315 84.1495 489.284 101.081 467.194 101.081C445.104 101.081 429.283 84.529 429.283 60.8295C429.283 37.13 445.23 20.5783 467.194 20.5783C489.157 20.5783 505.315 37.5095 505.315 60.8295Z" fill="#2ED88E"/>
<path d="M29.0968 8.87109H2.19238V129.196H29.0968V8.87109Z" fill="#2ED88E"/>
<path d="M83.047 8.87109H56.1426V129.196H83.047V8.87109Z" fill="#2ED88E"/>
<path d="M137.003 8.87109H110.099V129.196H137.003V8.87109Z" fill="#2ED88E"/>
<path d="M190.952 8.87109H164.048V129.196H190.952V8.87109Z" fill="#2ED88E"/>
<path d="M27.3399 305.852L-25.0703 425.214L77.6627 426.183L27.3399 305.852Z" fill="#2ED88E"/>
<path d="M255.986 195.711H225.35V425.073H255.986V195.711Z" fill="#2ED88E"/>
<path d="M317.336 195.711H286.699V425.073H317.336V195.711Z" fill="#2ED88E"/>
<path d="M378.686 195.711H348.05V425.073H378.686V195.711Z" fill="#2ED88E"/>
<path d="M466.428 226.762L446.475 272.2L485.58 272.565L466.428 226.762Z" fill="#2ED88E"/>
<path d="M427.871 272.565L466.028 183.53L504.184 272.565H531.005L479.438 152.24H452.618L401.051 272.565H427.871Z" fill="#2ED88E"/>
<path d="M399.511 425.917C399.574 425.917 399.63 425.917 399.693 425.917C433.935 425.917 461.69 399.364 461.69 366.605C461.69 333.846 433.935 307.293 399.693 307.293C399.63 307.293 399.574 307.293 399.511 307.293V425.903V425.917Z" fill="#2ED88E"/>
<path d="M145.212 425.811C178.695 425.811 205.839 398.668 205.839 365.185C205.839 331.702 178.695 304.559 145.212 304.559C111.729 304.559 84.5859 331.702 84.5859 365.185C84.5859 398.668 111.729 425.811 145.212 425.811Z" fill="#2ED88E"/>
<path d="M145.212 316.842C145.212 343.535 123.572 365.176 96.8779 365.176C123.572 365.176 145.212 386.816 145.212 413.509C145.212 386.816 166.852 365.176 193.545 365.176C166.852 365.176 145.212 343.535 145.212 316.842Z" fill="white"/>
<path d="M188.38 169.551C177.36 158.39 162.066 152.24 145.318 152.24C110.956 152.24 85.0498 178.245 85.0498 212.726C85.0498 247.207 110.31 273.205 145.107 273.205C179.904 273.205 205.375 247.207 205.375 212.726C205.375 195.985 199.337 180.656 188.38 169.551ZM183.229 212.719C183.229 236.039 167.197 252.97 145.107 252.97C123.017 252.97 107.196 236.418 107.196 212.719C107.196 189.019 123.143 172.468 145.107 172.468C167.07 172.468 183.229 189.399 183.229 212.719Z" fill="#2ED88E"/>
<path d="M166.241 191.69C160.871 186.25 153.428 183.256 145.268 183.256C128.534 183.256 115.911 195.921 115.911 212.712C115.911 229.502 128.211 242.167 145.163 242.167C162.115 242.167 174.52 229.502 174.52 212.712C174.52 204.559 171.582 197.088 166.241 191.683V191.69ZM163.732 212.719C163.732 224.076 155.923 232.321 145.163 232.321C134.403 232.321 126.7 224.259 126.7 212.719C126.7 201.178 134.466 193.117 145.163 193.117C155.86 193.117 163.732 201.361 163.732 212.719Z" fill="#2ED88E"/>
<path d="M290.417 73.9293H313.484V9.26172H337.535V95.1619H290.417V73.9293Z" fill="#2ED88E"/>
<path d="M337.542 32.7082V9.26172L224.716 9.26172V32.7082L337.542 32.7082Z" fill="#2ED88E"/>
<path d="M375.959 136.919V113.473L224.709 113.473V136.919H375.959Z" fill="#2ED88E"/>
<path d="M375.959 175.833V152.387H224.709V175.833H375.959Z" fill="#2ED88E"/>
<path d="M224.71 136.918H248.156L248.156 9.26254H224.71V136.918Z" fill="#2ED88E"/>
<path d="M-81.8584 152.656H13.2419C43.9275 152.656 68.8359 177.565 68.8359 208.25H-26.2643C-56.95 208.25 -81.8584 183.342 -81.8584 152.656Z" fill="#2ED88E"/>
<path d="M-26.2643 214.748H68.8359C68.8359 245.434 43.9275 270.342 13.2419 270.342H-81.8584C-81.8584 239.656 -56.95 214.748 -26.2643 214.748Z" fill="#2ED88E"/>
</g>
</svg>
