<svg width="70" height="70" viewBox="0 0 70 70" fill="none" xmlns="http://www.w3.org/2000/svg">
<path d="M39.631 22.4292C40.29 22.7323 41.0809 22.4424 41.3839 21.7834C41.687 21.1244 41.3839 20.3336 40.7381 20.0305C33.7265 16.8147 25.3442 18.3304 19.8615 23.8C12.6126 31.0488 12.6126 42.858 19.8615 50.1071C23.3805 53.6261 28.046 55.5635 33.015 55.5635C37.984 55.5635 42.6495 53.6261 46.1686 50.1071C51.6382 44.6375 53.1538 36.2416 49.938 29.2304C49.6349 28.5714 48.8441 28.2815 48.1851 28.5846C47.5262 28.8878 47.2362 29.6653 47.5393 30.3375C50.307 36.3474 49.0023 43.5434 44.2971 48.2484C41.279 51.2665 37.2723 52.9272 33.0018 52.9272C28.7312 52.9272 24.7249 51.2665 21.7064 48.2484C15.4856 42.0276 15.4856 31.8921 21.7064 25.6712C26.3984 20.9793 33.6074 19.6745 39.6173 22.429L39.631 22.4292Z" fill="#2ED88E"/>
<path d="M16.632 53.3358C7.60398 44.3079 7.60398 29.6124 16.632 20.5709C22.4442 14.7587 30.9976 12.4522 38.9586 14.5741C39.6571 14.7586 40.382 14.3369 40.5665 13.6383C40.751 12.9398 40.3293 12.2149 39.6307 12.0304C30.7739 9.67125 21.2449 12.2413 14.7609 18.7126C4.70469 28.7688 4.70469 45.1378 14.7609 55.2075C19.7956 60.2422 26.3987 62.7594 33.0016 62.7594C39.6046 62.7594 46.221 60.2421 51.2423 55.2075C57.7268 48.7231 60.2838 39.1945 57.9245 30.3377C57.74 29.6392 57.0151 29.2174 56.3166 29.4019C55.6181 29.5864 55.1963 30.3113 55.3808 31.0098C57.5027 38.9572 55.1963 47.5239 49.384 53.3364C40.356 62.3644 25.6471 62.3644 16.6191 53.3364L16.632 53.3358Z" fill="#2ED88E"/>
<path d="M62.1419 24.4465C61.4566 24.7101 61.1271 25.4613 61.3775 26.1466C65.6346 37.3095 62.9195 49.9755 54.4713 58.424C48.7381 64.1572 41.1069 67.3205 33.0017 67.3205C24.8965 67.3205 17.2653 64.1573 11.5321 58.424C5.79878 52.6908 2.63565 45.0596 2.63565 36.9544C2.63565 28.8492 5.79878 21.2181 11.5321 15.4848C19.9806 7.03627 32.6457 4.32188 43.8095 8.57861C44.4816 8.82903 45.246 8.49953 45.5096 7.81419C45.7732 7.12884 45.4306 6.37762 44.7452 6.11402C32.6199 1.48793 18.8472 4.42702 9.66062 13.6133C3.42664 19.8472 0 28.1375 0 36.9546C0 45.7717 3.43988 54.0617 9.66062 60.296C15.8814 66.5303 24.1849 69.9566 33.002 69.9566C41.8191 69.9566 50.109 66.5299 56.3434 60.296C65.5299 51.1094 68.4687 37.3502 63.8426 25.2114C63.579 24.5261 62.814 24.1961 62.1419 24.4465Z" fill="#2ED88E"/>
<path d="M69.9043 11.0557C69.733 10.5812 69.3112 10.2385 68.8104 10.1858L60.6917 9.28962L59.7955 1.17092C59.7427 0.670092 59.4001 0.23514 58.9256 0.0769831C58.4512 -0.0943489 57.9108 0.0242643 57.555 0.393296L44.3095 13.6388C44.0327 13.9156 43.8877 14.3241 43.9273 14.7195L44.8762 23.2599L36.9947 31.1414C34.2401 29.2699 30.4444 29.5336 28.0063 31.9849C25.2518 34.7395 25.2518 39.2338 28.0063 42.0015C29.3902 43.3854 31.1958 44.0707 33.0146 44.0707C34.8335 44.0707 36.6391 43.3854 38.0229 42.0015C40.4611 39.5633 40.738 35.7675 38.8664 33.0132L46.7479 25.1317L55.2884 26.0806H55.4334C55.776 26.0806 56.1187 25.9488 56.3691 25.6984L69.6146 12.4529C69.9705 12.097 70.0891 11.5567 69.9309 11.0822L69.9043 11.0557ZM36.1508 40.1042C34.4242 41.8307 31.6038 41.8307 29.8641 40.1042C28.1244 38.3776 28.1375 35.5572 29.8641 33.8175C30.7339 32.9476 31.8674 32.5126 33.0009 32.5126C33.7126 32.5126 34.4111 32.6972 35.0569 33.0398L32.0784 36.0184C31.5643 36.5324 31.5643 37.3628 32.0784 37.8767C32.3419 38.1403 32.6714 38.2589 33.0141 38.2589C33.3568 38.2589 33.6863 38.1271 33.9499 37.8767L36.9285 34.8982C37.7983 36.572 37.5611 38.6807 36.1509 40.0909L36.1508 40.1042ZM54.9322 23.3531L47.4461 22.5227L46.6158 15.0367L57.4624 4.19008L58.1741 10.6349C58.24 11.2412 58.7276 11.7289 59.3339 11.7948L65.7787 12.5065L54.9322 23.3531Z" fill="#16303D"/>
</svg>
