<svg width="55" height="60" viewBox="0 0 55 60" fill="none" xmlns="http://www.w3.org/2000/svg">
<path d="M50.2426 8.42133C43.7176 6.79299 37.3909 4.4481 31.3812 1.43028L29.6102 0.559284C28.0809 -0.186428 26.2923 -0.186428 24.763 0.559284L22.9919 1.43028C16.9825 4.4481 10.6556 6.79299 4.13059 8.42133C1.70411 9.0214 -0.00290458 11.2003 3.71048e-06 13.7025V23.1782C0.0203938 31.1014 2.44684 38.8322 6.9561 45.346C11.4683 51.8594 17.8502 56.8494 25.2612 59.657C26.505 60.1143 27.8682 60.1143 29.1121 59.657C36.5226 56.8489 42.9048 51.8591 47.4172 45.346C51.9264 38.8327 54.3529 31.1014 54.3733 23.1782V13.8568C54.4373 11.3022 52.7216 9.04475 50.2426 8.42133ZM49.7154 23.1812L49.7124 23.1783C49.6891 30.1548 47.5511 36.9621 43.5777 42.6981C39.6074 48.4337 33.9886 52.8323 27.4666 55.3081C27.286 55.3692 27.0879 55.3692 26.9073 55.3081C20.3852 52.8321 14.7663 48.4335 10.7961 42.6981C6.82289 36.9625 4.68478 30.1552 4.66144 23.1783V13.8569C4.676 13.5073 4.91195 13.2073 5.24985 13.1112C12.104 11.3896 18.751 8.9311 25.0754 5.77934L26.8465 4.87927H27.5281L29.2992 5.77934C35.6232 8.93117 42.2709 11.3896 49.1248 13.1112C49.4627 13.2073 49.6986 13.5073 49.7132 13.8569L49.7154 23.1812ZM39.0248 18.7973C40.0094 19.6275 40.1463 21.0926 39.3365 22.0918L26.3797 37.6265C25.9602 38.1304 25.3543 38.4334 24.7018 38.4654C24.0843 38.4654 23.49 38.2207 23.0531 37.7838L15.194 29.9217C14.7484 29.4877 14.4979 28.8964 14.4979 28.276C14.4979 27.6555 14.7484 27.0613 15.194 26.6273C15.6543 26.2165 16.2602 26.0039 16.8777 26.0388C17.4952 26.0738 18.075 26.3535 18.4856 26.8137L24.4513 32.7794L35.7623 19.2022C36.5547 18.1914 38.0111 18.0107 39.0248 18.7973Z" fill="#2ED88E"/>
<path d="M50.2426 8.42133C43.7176 6.79299 37.3909 4.4481 31.3812 1.43028L29.6102 0.559284C28.0809 -0.186428 26.2923 -0.186428 24.763 0.559284L22.9919 1.43028C16.9825 4.4481 10.6556 6.79299 4.13059 8.42133C1.70411 9.0214 -0.00290458 11.2003 3.71048e-06 13.7025V23.1782C0.0203938 31.1014 2.44684 38.8322 6.9561 45.346C11.4683 51.8594 17.8502 56.8494 25.2612 59.657C26.505 60.1143 27.8682 60.1143 29.1121 59.657C36.5226 56.8489 42.9048 51.8591 47.4172 45.346C51.9264 38.8327 54.3529 31.1014 54.3733 23.1782V13.8568C54.4373 11.3022 52.7216 9.04475 50.2426 8.42133ZM49.7154 23.1812L49.7124 23.1783C49.6891 30.1548 47.5511 36.9621 43.5777 42.6981C39.6074 48.4337 33.9886 52.8323 27.4666 55.3081C27.286 55.3692 27.0879 55.3692 26.9073 55.3081C20.3852 52.8321 14.7663 48.4335 10.7961 42.6981C6.82289 36.9625 4.68478 30.1552 4.66144 23.1783V13.8569C4.676 13.5073 4.91195 13.2073 5.24985 13.1112C12.104 11.3896 18.751 8.9311 25.0754 5.77934L26.8465 4.87927H27.5281L29.2992 5.77934C35.6232 8.93117 42.2709 11.3896 49.1248 13.1112C49.4627 13.2073 49.6986 13.5073 49.7132 13.8569L49.7154 23.1812Z" fill="#16303D"/>
</svg>
