<svg width="66" height="66" viewBox="0 0 66 66" fill="none" xmlns="http://www.w3.org/2000/svg">
<path d="M22.6775 42.2901H6.16132C3.31485 42.2901 1 44.6049 1 47.4514V55.7095C1 58.5559 3.31485 60.8708 6.16132 60.8708H10.2904V63.9676C10.2904 64.3495 10.4994 64.6979 10.8349 64.8786C10.9871 64.9611 11.1549 64.9998 11.3226 64.9998C11.5239 64.9998 11.7226 64.9405 11.8955 64.8269L17.8285 60.8708H22.6775C25.524 60.8708 27.8388 58.5559 27.8388 55.7095V47.4514C27.8388 44.6049 25.524 42.2901 22.6775 42.2901ZM25.7743 55.7091C25.7743 57.4175 24.3859 58.8059 22.6775 58.8059H17.5162C17.3123 58.8059 17.1136 58.8653 16.9433 58.9788L12.3549 62.0395V59.8382C12.3549 59.2679 11.893 58.806 11.3226 58.806H6.16132C4.45295 58.806 3.06453 57.4175 3.06453 55.7092V47.4511C3.06453 45.7427 4.45295 44.3543 6.16132 44.3543H22.6775C24.3859 44.3543 25.7743 45.7427 25.7743 47.4511L25.7743 55.7091Z" fill="#16303D" stroke="#16303D"/>
<path d="M59.8387 1H43.3224C40.476 1 38.1611 3.31485 38.1611 6.16132V14.4194C38.1611 17.2659 40.476 19.5807 43.3224 19.5807H48.1715L54.1044 23.5369C54.2773 23.653 54.476 23.7098 54.6773 23.7098C54.8451 23.7098 55.0128 23.6685 55.1651 23.5885C55.5006 23.4079 55.7096 23.0595 55.7096 22.6775V19.5808H59.8387C62.6851 19.5808 65 17.2659 65 14.4194V6.16134C65 3.31487 62.6851 1 59.8387 1ZM62.9354 14.4191C62.9354 16.1275 61.547 17.5159 59.8387 17.5159H54.6773C54.107 17.5159 53.6451 17.9778 53.6451 18.5481V20.7494L49.0567 17.6913C48.8864 17.5752 48.6876 17.5159 48.4838 17.5159H43.3225C41.6141 17.5159 40.2257 16.1274 40.2257 14.4191V6.16097C40.2257 4.4526 41.6141 3.06418 43.3225 3.06418H59.8387C61.547 3.06418 62.9355 4.4526 62.9355 6.16097L62.9354 14.4191Z" fill="#16303D" stroke="#16303D"/>
<path d="M43.8891 26.485L42.2297 23.515C42.0327 23.1614 41.6199 23.0007 41.2445 23.1314L39.0147 23.9114C38.1145 23.095 37.0649 22.4693 35.9345 22.0729L35.474 19.69C35.3972 19.2893 35.055 19 34.6609 19H31.3422C30.946 19 30.6058 19.2893 30.5291 19.69L30.0686 22.0729C28.9382 22.4693 27.8886 23.0971 26.9884 23.9114L24.7586 23.1314C24.3832 23.0007 23.9725 23.1614 23.7734 23.515L22.114 26.485C21.9169 26.8386 21.9875 27.2886 22.2841 27.5564L24.0492 29.1593C23.931 29.7636 23.8729 30.3807 23.8729 31C23.8729 31.6193 23.931 32.2364 24.0471 32.8407L22.282 34.4436C21.9854 34.7136 21.9128 35.1614 22.1119 35.515L23.7713 38.485C23.9683 38.8386 24.3811 38.9993 24.7566 38.8686L26.9863 38.0886C27.8865 38.9029 28.9361 39.5307 30.0666 39.9271L30.527 42.31C30.6038 42.7107 30.946 43 31.3401 43H34.6588C35.055 43 35.3952 42.7107 35.4719 42.31L35.9324 39.9271C37.0628 39.5307 38.1124 38.9029 39.0126 38.0886L41.2424 38.8686C41.6178 38.9993 42.0285 38.8386 42.2277 38.485L43.887 35.515C44.0841 35.1614 44.0136 34.7115 43.7169 34.4436L41.9518 32.8407C42.068 32.2364 42.126 31.6193 42.126 31C42.126 30.3807 42.068 29.7636 41.9518 29.1593L43.7169 27.5564C44.0156 27.2864 44.0862 26.8386 43.8891 26.485ZM40.4853 28.21C40.2509 28.4243 40.1513 28.7543 40.2302 29.0671C40.3878 29.695 40.4666 30.3464 40.4666 30.9999C40.4666 31.6535 40.3878 32.3049 40.2302 32.9328C40.1513 33.2456 40.2509 33.5778 40.4853 33.7899L42.1115 35.2663L41.1324 37.0192L39.0789 36.3013C38.7823 36.1985 38.4546 36.2756 38.2326 36.5027C37.3304 37.4199 36.2103 38.0863 34.9968 38.4334C34.6961 38.5191 34.4658 38.7741 34.4036 39.0913L33.9784 41.2855H32.0203L31.5951 39.0913C31.5329 38.7741 31.3047 38.5191 31.0019 38.4334C29.7864 38.0863 28.6684 37.4177 27.7661 36.5027C27.542 36.2756 27.2143 36.1985 26.9177 36.3013L24.8642 37.0192L23.8851 35.2663L25.5113 33.7899C25.7457 33.5756 25.8453 33.2456 25.7665 32.9328C25.6109 32.3049 25.5321 31.6535 25.5321 30.9999C25.5321 30.3442 25.6109 29.695 25.7685 29.0671C25.8474 28.7543 25.7478 28.4221 25.5134 28.21L23.8872 26.7336L24.8663 24.9807L26.9198 25.6986C27.2164 25.8014 27.5441 25.7243 27.7661 25.4972C28.6683 24.58 29.7884 23.9136 31.0019 23.5665C31.3026 23.4808 31.5329 23.2258 31.5951 22.9086L32.0203 20.7143H33.9784L34.4036 22.9086C34.4658 23.2258 34.694 23.4808 34.9968 23.5665C36.2103 23.9136 37.3303 24.5822 38.2326 25.4972C38.4567 25.7243 38.7844 25.8014 39.0789 25.6986L41.1324 24.9807L42.1115 26.7336L40.4853 28.21Z" fill="#2ED88E"/>
<path d="M33 27C30.794 27 29 28.794 29 31C29 33.206 30.794 35 33 35C35.206 35 37 33.206 37 31C37 28.794 35.206 27 33 27ZM33 33.4C31.676 33.4 30.6 32.324 30.6 31C30.6 29.676 31.676 28.6 33 28.6C34.324 28.6 35.4 29.676 35.4 31C35.4 32.324 34.324 33.4 33 33.4Z" fill="#2ED88E"/>
<path d="M52.6134 10.2904C52.6134 11.6659 50.5488 11.6659 50.5488 10.2904C50.5488 8.91492 52.6134 8.91492 52.6134 10.2904Z" fill="#16303D" stroke="#16303D"/>
<path d="M58.8067 10.2904C58.8067 11.6659 56.7422 11.6659 56.7422 10.2904C56.7422 8.91492 58.8067 8.91492 58.8067 10.2904Z" fill="#16303D" stroke="#16303D"/>
<path d="M46.419 10.2904C46.419 11.6659 44.3545 11.6659 44.3545 10.2904C44.3545 8.91492 46.419 8.91492 46.419 10.2904Z" fill="#16303D" stroke="#16303D"/>
<path d="M15.4522 51.5804C15.4522 52.9559 13.3877 52.9559 13.3877 51.5804C13.3877 50.205 15.4522 50.205 15.4522 51.5804Z" fill="#16303D" stroke="#16303D"/>
<path d="M21.6446 51.5804C21.6446 52.9559 19.5801 52.9559 19.5801 51.5804C19.5801 50.205 21.6446 50.205 21.6446 51.5804Z" fill="#16303D" stroke="#16303D"/>
<path d="M9.25789 51.5804C9.25789 52.9559 7.19336 52.9559 7.19336 51.5804C7.19336 50.205 9.25789 50.205 9.25789 51.5804Z" fill="#16303D" stroke="#16303D"/>
</svg>
