<svg width="64" height="61" viewBox="0 0 64 61" fill="none" xmlns="http://www.w3.org/2000/svg">
<path d="M32.0002 0C22.3439 0 13.2004 4.09483 7.1238 11.1362C6.50713 11.8525 6.62713 12.9036 7.39047 13.4824C8.1538 14.0642 9.27045 13.9516 9.89048 13.2352C15.2905 6.97258 23.4141 3.3379 32.0004 3.3379C47.7307 3.3379 60.4437 15.2685 60.4437 30.0308C60.4437 44.7931 47.7307 56.7237 32.0004 56.7237C23.4141 56.7237 15.2904 53.0856 9.89048 46.8232V46.8263C9.27048 46.11 8.15377 45.9973 7.39047 46.5792C6.62713 47.1579 6.5071 48.209 7.1238 48.9253C13.2005 55.9669 22.3439 60.0615 32.0002 60.0615C49.654 60.0615 64.0002 46.5982 64.0002 30.0308C64.0002 13.4635 49.654 0 32.0002 0Z" fill="#2ED88E"/>
<path d="M29.45 12.5848L18.8337 17.0112C18.4037 17.1895 18.0637 17.5211 17.897 17.934C17.727 18.35 17.7403 18.8067 17.9303 19.2135C18.1237 19.617 18.477 19.9329 18.917 20.0925C19.357 20.2521 19.8469 20.2395 20.277 20.0612L30.8933 15.6349C31.5967 15.3408 32.3967 15.3408 33.1033 15.6349L45.6533 20.8684C46.0033 21.0154 46.2233 21.3282 46.2233 21.6879V38.3706C46.2233 38.7303 46.0033 39.0463 45.6533 39.1933L33.1229 44.4205C32.4063 44.7208 31.5896 44.7208 30.8729 44.4205L20.2762 40.0003C19.8462 39.822 19.3563 39.8095 18.9162 39.9691C18.4762 40.1286 18.1229 40.4446 17.9296 40.8481C17.7396 41.2548 17.7262 41.7115 17.8962 42.1276C18.0629 42.5405 18.4029 42.8721 18.8329 43.0535L29.4296 47.4705C31.0663 48.1524 32.933 48.1524 34.5696 47.4705L47.0966 42.2433C48.7232 41.5645 49.7765 40.0411 49.7765 38.3738V21.6911C49.7765 20.0207 48.7232 18.4972 47.0966 17.8184L34.55 12.5849C32.9267 11.9092 31.0733 11.9092 29.4533 12.5849L29.45 12.5848Z" fill="#2ED88E"/>
<path d="M8.89003 21.6875C4 21.6875 0 25.4445 0 30.0304C0 34.6164 4 38.3734 8.89003 38.3734C13.1667 38.3734 16.7667 35.4923 17.6 31.7009L32 31.6978V35.0356C32 35.9584 32.7967 36.7029 33.7767 36.7029C34.76 36.7029 35.5533 35.9553 35.5533 35.0356V31.6978H39.11V35.0356C39.11 35.9584 39.9067 36.7029 40.8866 36.7029C41.8699 36.7029 42.6633 35.9553 42.6633 35.0356V31.6978C42.6633 29.8741 41.05 28.36 39.1066 28.36L17.5966 28.3631V28.3569C16.7633 24.5623 13.1666 21.6875 8.89003 21.6875ZM8.89003 25.0253C11.8567 25.0253 14.2234 27.2463 14.2234 30.0304C14.2234 32.8146 11.8567 35.0356 8.89003 35.0356C5.92333 35.0356 3.55669 32.8146 3.55669 30.0304C3.55669 27.2463 5.92333 25.0253 8.89003 25.0253Z" fill="#16303D"/>
</svg>
