<svg width="61" height="60" viewBox="0 0 61 60" fill="none" xmlns="http://www.w3.org/2000/svg">
<path d="M2.53906 14.7705H57.8491" stroke="#16303D" stroke-width="3" stroke-miterlimit="10" stroke-linecap="square" stroke-linejoin="round"/>
<path d="M8.04883 10H10.5688" stroke="#16303D" stroke-width="3" stroke-miterlimit="10" stroke-linecap="square" stroke-linejoin="round"/>
<path d="M15.0781 10H17.5981" stroke="#16303D" stroke-width="3" stroke-miterlimit="10" stroke-linecap="square" stroke-linejoin="round"/>
<path d="M22.1084 10H24.6284" stroke="#16303D" stroke-width="3" stroke-miterlimit="10" stroke-linecap="square" stroke-linejoin="round"/>
<path d="M54.49 54.02H6.07001C3.82001 54.02 2 52.2 2 49.95V9.07C2 6.82 3.82001 5 6.07001 5H54.49C56.74 5 58.56 6.82 58.56 9.07V49.95C58.56 52.19 56.74 54.02 54.49 54.02Z" stroke="#16303D" stroke-width="3" stroke-miterlimit="10" stroke-linecap="square" stroke-linejoin="round"/>
<line x1="7.71484" y1="22.7146" x2="40.2863" y2="22.7146" stroke="#2ED88E" stroke-width="4.28571"/>
<line x1="7.71387" y1="31.2859" x2="53.1424" y2="31.2859" stroke="#2ED88E" stroke-width="4.28571"/>
<line x1="14.1429" y1="36" x2="14.1429" y2="48" stroke="#2ED88E" stroke-width="4.28571"/>
<line x1="22.7141" y1="36" x2="22.7141" y2="48" stroke="#2ED88E" stroke-width="4.28571"/>
<line x1="31.2854" y1="36" x2="31.2854" y2="48" stroke="#2ED88E" stroke-width="4.28571"/>
<line x1="39.8567" y1="36" x2="39.8567" y2="48" stroke="#2ED88E" stroke-width="4.28571"/>
<line x1="48.429" y1="36" x2="48.429" y2="48" stroke="#2ED88E" stroke-width="4.28571"/>
</svg>
