<svg width="62" height="64" viewBox="0 0 62 64" fill="none" xmlns="http://www.w3.org/2000/svg">
<path d="M40.1278 9.2824C40.2852 8.88508 40.7367 8.7019 41.1263 8.85928C46.2321 10.913 50.5843 14.4011 53.7216 18.952C56.9311 23.6089 58.6236 29.0759 58.6236 34.752C58.6236 35.8614 58.5565 36.9785 58.4249 38.075C58.3785 38.4646 58.0483 38.7561 57.6665 38.7561C57.6329 38.7561 57.6071 38.7561 57.5736 38.7483C57.1505 38.6967 56.8538 38.3201 56.9002 37.8969C57.0266 36.8598 57.086 35.8019 57.086 34.7519C57.086 23.926 50.5947 14.3233 40.5535 10.2806C40.1614 10.1206 39.9679 9.67197 40.1278 9.2824ZM46.7197 55.7067C42.0887 59.2465 36.5543 61.117 30.7164 61.117C25.141 61.117 19.8105 59.3987 15.3087 56.1505C14.9656 55.9002 14.4831 55.9776 14.238 56.3234C13.9878 56.6665 14.0652 57.149 14.4109 57.3941C19.1787 60.8358 24.8213 62.6521 30.7187 62.6521C36.9004 62.6521 42.7593 60.6706 47.6541 56.9245C47.992 56.6665 48.0565 56.184 47.7985 55.8486C47.538 55.5081 47.0551 55.4487 46.7197 55.7067ZM3.8065 39.0501C3.84004 39.0501 3.87358 39.0501 3.90454 39.0424C4.32767 38.9908 4.62433 38.5986 4.56502 38.1833C4.42054 37.0532 4.34057 35.8974 4.34057 34.7493C4.34057 23.9234 10.8318 14.3207 20.873 10.2779C21.2703 10.1205 21.4535 9.66904 21.2961 9.27948C21.1387 8.88216 20.6872 8.69898 20.2977 8.85636C15.1918 10.91 10.8396 14.3982 7.70235 18.9491C4.49282 23.606 2.80034 29.0729 2.80034 34.7491C2.80034 35.9642 2.88032 37.1794 3.03254 38.3817C3.1022 38.7661 3.43239 39.0501 3.8065 39.0501ZM24.0984 7.61799C24.0984 3.96476 27.0705 1 30.7164 1C34.3619 0.997422 37.3416 3.96442 37.3416 7.61799C37.3416 11.2716 34.3695 14.236 30.7236 14.236C27.0755 14.236 24.0984 11.269 24.0984 7.61799ZM25.636 7.61799C25.636 10.4173 27.9141 12.7031 30.7212 12.7031C33.5282 12.7031 35.8063 10.425 35.8063 7.61799C35.8063 4.81096 33.5282 2.53284 30.7212 2.53284C27.9141 2.53026 25.636 4.81611 25.636 7.61799ZM61 48.0386C61 51.6918 58.0279 54.6566 54.382 54.6566C50.7365 54.6566 47.764 51.6844 47.764 48.0386C47.764 44.3927 50.7362 41.4206 54.382 41.4206C58.0275 41.4206 61 44.3927 61 48.0386ZM59.4675 48.0386C59.4675 45.2393 57.1894 42.9534 54.3823 42.9534C51.583 42.9534 49.2972 45.2316 49.2972 48.0386C49.2972 50.8456 51.5753 53.1237 54.3823 53.1237C57.1816 53.1237 59.4675 50.8456 59.4675 48.0386ZM14.238 48.0386C14.238 51.6918 11.2658 54.6566 7.61997 54.6566C3.97189 54.6566 1 51.6896 1 48.0386C1 44.3853 3.97215 41.4206 7.61799 41.4206C11.2661 41.4206 14.238 44.3927 14.238 48.0386ZM12.7055 48.0386C12.7055 45.2393 10.4273 42.9534 7.6203 42.9534C4.821 42.9534 2.53515 45.2316 2.53515 48.0386C2.53515 50.8456 4.81327 53.1237 7.6203 53.1237C10.4273 53.1237 12.7055 50.8456 12.7055 48.0386ZM21.186 21.9292C21.5756 21.5397 22.1973 21.5267 22.5998 21.9086L24.349 23.5598C25.2133 23.0773 26.1318 22.7006 27.0761 22.4298L27.1483 20.0252C27.169 19.4705 27.6101 19.0422 28.1649 19.0422H33.2577C33.8124 19.0422 34.2562 19.4783 34.2743 20.0252L34.3465 22.4298C35.2985 22.7007 36.2093 23.0825 37.0736 23.5598L38.8306 21.9086C39.2331 21.5319 39.8548 21.5397 40.2444 21.9292L43.8435 25.5283C44.233 25.9179 44.2459 26.5396 43.8641 26.9421L42.2284 28.6991C42.7108 29.5634 43.0875 30.4767 43.3584 31.4262L45.7629 31.4984C46.3176 31.5191 46.7459 31.9602 46.7459 32.515V37.6078C46.7459 38.1625 46.3099 38.6063 45.7629 38.6244L43.3584 38.6966C43.0875 39.6486 42.7056 40.5594 42.2284 41.4237L43.8796 43.1807C44.2562 43.5831 44.2485 44.2049 43.8589 44.5945L40.2598 48.1936C39.8703 48.5831 39.2485 48.596 38.846 48.2142L37.089 46.563C36.2247 47.0455 35.3063 47.4222 34.362 47.693L34.2897 50.0976C34.2768 50.6522 33.8279 51.0805 33.2732 51.0805H28.1803C27.6256 51.0805 27.1819 50.6445 27.1638 50.0976L27.0915 47.693C26.1395 47.4221 25.2236 47.0403 24.3567 46.5578L22.6075 48.209C22.2051 48.5857 21.5833 48.5779 21.1937 48.1883L17.5946 44.5893C17.2051 44.1997 17.1922 43.5779 17.574 43.1755L19.2252 41.4262C18.7427 40.5619 18.366 39.6435 18.09 38.6915L15.6854 38.6192C15.1307 38.5986 14.7024 38.1574 14.7024 37.6027V32.5098C14.7024 31.9551 15.1385 31.5114 15.6854 31.4933L18.09 31.421C18.3609 30.469 18.7427 29.5531 19.2252 28.6862L17.574 26.937C17.1973 26.5346 17.2051 25.9128 17.5946 25.5232L21.186 21.9292ZM19.0266 26.2559L20.5926 27.92C20.91 28.2502 20.9616 28.7456 20.7242 29.1351C20.1566 30.0871 19.7335 31.1088 19.4626 32.1795C19.349 32.6233 18.9672 32.9329 18.5054 32.9458L16.2195 33.0129V37.0944L18.5054 37.1615C18.962 37.1744 19.3439 37.484 19.4626 37.9278C19.7335 38.9985 20.1617 40.0228 20.7242 40.9722C20.9564 41.3695 20.9022 41.8571 20.5926 42.1874L19.0266 43.8514L21.9136 46.7384L23.5776 45.1724C23.9079 44.855 24.3955 44.8034 24.7928 45.0408C25.7448 45.6084 26.7665 46.0315 27.8372 46.3025C28.281 46.416 28.5905 46.7978 28.6035 47.2545L28.6706 49.5403H32.7521L32.8192 47.2545C32.8321 46.7978 33.1417 46.416 33.5855 46.2973C34.6562 46.0264 35.6805 45.6033 36.6299 45.0357C37.0272 44.8035 37.5148 44.8576 37.845 45.1672L39.5168 46.7333L42.4039 43.8463L40.8404 42.1925C40.5308 41.8623 40.4714 41.3746 40.7088 40.9774C41.2712 40.0253 41.6995 39.0037 41.9704 37.9381C42.084 37.4944 42.4658 37.1848 42.9225 37.1718L45.2083 37.0996V33.0103L42.9225 32.938C42.4658 32.9251 42.084 32.6156 41.9704 32.1718C41.6995 31.1011 41.2764 30.0768 40.7088 29.1325C40.4766 28.7352 40.5308 28.2476 40.8404 27.9174L42.4064 26.2533L39.5194 23.3688L37.8476 24.9349C37.5096 25.2445 37.022 25.3038 36.6325 25.0665C35.6805 24.504 34.6588 24.0835 33.5932 23.8048C33.1495 23.6913 32.8399 23.3095 32.8269 22.8528L32.7547 20.567H28.6654L28.5932 22.8528C28.5803 23.3095 28.2707 23.6913 27.8269 23.8048C26.7562 24.0757 25.7319 24.504 24.7825 25.0665C24.3851 25.2987 23.8976 25.2445 23.5673 24.9349L21.9032 23.3688L19.0266 26.2559ZM23.4977 39.2283C22.3805 37.2985 22.0916 35.0539 22.6643 32.9022C23.8537 28.4646 28.4358 25.8153 32.876 27.0095C35.0303 27.5848 36.826 28.9651 37.9354 30.8924C39.0525 32.8222 39.3415 35.0668 38.7687 37.2185C38.1934 39.3728 36.8131 41.1685 34.8858 42.2779C33.6036 43.0184 32.1768 43.4002 30.732 43.4002C30.0044 43.4002 29.2795 43.3073 28.5596 43.1086C26.4105 42.5359 24.6122 41.1556 23.4977 39.2283ZM24.8315 38.462C25.7422 40.0333 27.2103 41.1633 28.9595 41.6329C30.7165 42.1024 32.5457 41.8651 34.1169 40.9518C35.6881 40.0411 36.8181 38.573 37.2877 36.8238C37.7573 35.0668 37.5199 33.2376 36.6066 31.6664C35.6959 30.0952 34.2279 28.9652 32.4786 28.4956C31.8904 28.3382 31.3022 28.2634 30.7216 28.2634C27.7159 28.2634 24.9631 30.2706 24.1504 33.3021C23.6834 35.0539 23.9208 36.8908 24.8315 38.462Z" fill="black"/>
<mask id="path-2-outside-1_2272_20850" maskUnits="userSpaceOnUse" x="0" y="0" width="62" height="64" fill="black">
<rect fill="white" width="62" height="64"/>
<path d="M40.1278 9.2824C40.2852 8.88508 40.7367 8.7019 41.1263 8.85928C46.2321 10.913 50.5843 14.4011 53.7216 18.952C56.9311 23.6089 58.6236 29.0759 58.6236 34.752C58.6236 35.8614 58.5565 36.9785 58.4249 38.075C58.3785 38.4646 58.0483 38.7561 57.6665 38.7561C57.6329 38.7561 57.6071 38.7561 57.5736 38.7483C57.1505 38.6967 56.8538 38.3201 56.9002 37.8969C57.0266 36.8598 57.086 35.8019 57.086 34.7519C57.086 23.926 50.5947 14.3233 40.5535 10.2806C40.1614 10.1206 39.9679 9.67197 40.1278 9.2824ZM46.7197 55.7067C42.0887 59.2465 36.5543 61.117 30.7164 61.117C25.141 61.117 19.8105 59.3987 15.3087 56.1505C14.9656 55.9002 14.4831 55.9776 14.238 56.3234C13.9878 56.6665 14.0652 57.149 14.4109 57.3941C19.1787 60.8358 24.8213 62.6521 30.7187 62.6521C36.9004 62.6521 42.7593 60.6706 47.6541 56.9245C47.992 56.6665 48.0565 56.184 47.7985 55.8486C47.538 55.5081 47.0551 55.4487 46.7197 55.7067ZM3.8065 39.0501C3.84004 39.0501 3.87358 39.0501 3.90454 39.0424C4.32767 38.9908 4.62433 38.5986 4.56502 38.1833C4.42054 37.0532 4.34057 35.8974 4.34057 34.7493C4.34057 23.9234 10.8318 14.3207 20.873 10.2779C21.2703 10.1205 21.4535 9.66904 21.2961 9.27948C21.1387 8.88216 20.6872 8.69898 20.2977 8.85636C15.1918 10.91 10.8396 14.3982 7.70235 18.9491C4.49282 23.606 2.80034 29.0729 2.80034 34.7491C2.80034 35.9642 2.88032 37.1794 3.03254 38.3817C3.1022 38.7661 3.43239 39.0501 3.8065 39.0501ZM24.0984 7.61799C24.0984 3.96476 27.0705 1 30.7164 1C34.3619 0.997422 37.3416 3.96442 37.3416 7.61799C37.3416 11.2716 34.3695 14.236 30.7236 14.236C27.0755 14.236 24.0984 11.269 24.0984 7.61799ZM25.636 7.61799C25.636 10.4173 27.9141 12.7031 30.7212 12.7031C33.5282 12.7031 35.8063 10.425 35.8063 7.61799C35.8063 4.81096 33.5282 2.53284 30.7212 2.53284C27.9141 2.53026 25.636 4.81611 25.636 7.61799ZM61 48.0386C61 51.6918 58.0279 54.6566 54.382 54.6566C50.7365 54.6566 47.764 51.6844 47.764 48.0386C47.764 44.3927 50.7362 41.4206 54.382 41.4206C58.0275 41.4206 61 44.3927 61 48.0386ZM59.4675 48.0386C59.4675 45.2393 57.1894 42.9534 54.3823 42.9534C51.583 42.9534 49.2972 45.2316 49.2972 48.0386C49.2972 50.8456 51.5753 53.1237 54.3823 53.1237C57.1816 53.1237 59.4675 50.8456 59.4675 48.0386ZM14.238 48.0386C14.238 51.6918 11.2658 54.6566 7.61997 54.6566C3.97189 54.6566 1 51.6896 1 48.0386C1 44.3853 3.97215 41.4206 7.61799 41.4206C11.2661 41.4206 14.238 44.3927 14.238 48.0386ZM12.7055 48.0386C12.7055 45.2393 10.4273 42.9534 7.6203 42.9534C4.821 42.9534 2.53515 45.2316 2.53515 48.0386C2.53515 50.8456 4.81327 53.1237 7.6203 53.1237C10.4273 53.1237 12.7055 50.8456 12.7055 48.0386ZM21.186 21.9292C21.5756 21.5397 22.1973 21.5267 22.5998 21.9086L24.349 23.5598C25.2133 23.0773 26.1318 22.7006 27.0761 22.4298L27.1483 20.0252C27.169 19.4705 27.6101 19.0422 28.1649 19.0422H33.2577C33.8124 19.0422 34.2562 19.4783 34.2743 20.0252L34.3465 22.4298C35.2985 22.7007 36.2093 23.0825 37.0736 23.5598L38.8306 21.9086C39.2331 21.5319 39.8548 21.5397 40.2444 21.9292L43.8435 25.5283C44.233 25.9179 44.2459 26.5396 43.8641 26.9421L42.2284 28.6991C42.7108 29.5634 43.0875 30.4767 43.3584 31.4262L45.7629 31.4984C46.3176 31.5191 46.7459 31.9602 46.7459 32.515V37.6078C46.7459 38.1625 46.3099 38.6063 45.7629 38.6244L43.3584 38.6966C43.0875 39.6486 42.7056 40.5594 42.2284 41.4237L43.8796 43.1807C44.2562 43.5831 44.2485 44.2049 43.8589 44.5945L40.2598 48.1936C39.8703 48.5831 39.2485 48.596 38.846 48.2142L37.089 46.563C36.2247 47.0455 35.3063 47.4222 34.362 47.693L34.2897 50.0976C34.2768 50.6522 33.8279 51.0805 33.2732 51.0805H28.1803C27.6256 51.0805 27.1819 50.6445 27.1638 50.0976L27.0915 47.693C26.1395 47.4221 25.2236 47.0403 24.3567 46.5578L22.6075 48.209C22.2051 48.5857 21.5833 48.5779 21.1937 48.1883L17.5946 44.5893C17.2051 44.1997 17.1922 43.5779 17.574 43.1755L19.2252 41.4262C18.7427 40.5619 18.366 39.6435 18.09 38.6915L15.6854 38.6192C15.1307 38.5986 14.7024 38.1574 14.7024 37.6027V32.5098C14.7024 31.9551 15.1385 31.5114 15.6854 31.4933L18.09 31.421C18.3609 30.469 18.7427 29.5531 19.2252 28.6862L17.574 26.937C17.1973 26.5346 17.2051 25.9128 17.5946 25.5232L21.186 21.9292ZM19.0266 26.2559L20.5926 27.92C20.91 28.2502 20.9616 28.7456 20.7242 29.1351C20.1566 30.0871 19.7335 31.1088 19.4626 32.1795C19.349 32.6233 18.9672 32.9329 18.5054 32.9458L16.2195 33.0129V37.0944L18.5054 37.1615C18.962 37.1744 19.3439 37.484 19.4626 37.9278C19.7335 38.9985 20.1617 40.0228 20.7242 40.9722C20.9564 41.3695 20.9022 41.8571 20.5926 42.1874L19.0266 43.8514L21.9136 46.7384L23.5776 45.1724C23.9079 44.855 24.3955 44.8034 24.7928 45.0408C25.7448 45.6084 26.7665 46.0315 27.8372 46.3025C28.281 46.416 28.5905 46.7978 28.6035 47.2545L28.6706 49.5403H32.7521L32.8192 47.2545C32.8321 46.7978 33.1417 46.416 33.5855 46.2973C34.6562 46.0264 35.6805 45.6033 36.6299 45.0357C37.0272 44.8035 37.5148 44.8576 37.845 45.1672L39.5168 46.7333L42.4039 43.8463L40.8404 42.1925C40.5308 41.8623 40.4714 41.3746 40.7088 40.9774C41.2712 40.0253 41.6995 39.0037 41.9704 37.9381C42.084 37.4944 42.4658 37.1848 42.9225 37.1718L45.2083 37.0996V33.0103L42.9225 32.938C42.4658 32.9251 42.084 32.6156 41.9704 32.1718C41.6995 31.1011 41.2764 30.0768 40.7088 29.1325C40.4766 28.7352 40.5308 28.2476 40.8404 27.9174L42.4064 26.2533L39.5194 23.3688L37.8476 24.9349C37.5096 25.2445 37.022 25.3038 36.6325 25.0665C35.6805 24.504 34.6588 24.0835 33.5932 23.8048C33.1495 23.6913 32.8399 23.3095 32.8269 22.8528L32.7547 20.567H28.6654L28.5932 22.8528C28.5803 23.3095 28.2707 23.6913 27.8269 23.8048C26.7562 24.0757 25.7319 24.504 24.7825 25.0665C24.3851 25.2987 23.8976 25.2445 23.5673 24.9349L21.9032 23.3688L19.0266 26.2559ZM23.4977 39.2283C22.3805 37.2985 22.0916 35.0539 22.6643 32.9022C23.8537 28.4646 28.4358 25.8153 32.876 27.0095C35.0303 27.5848 36.826 28.9651 37.9354 30.8924C39.0525 32.8222 39.3415 35.0668 38.7687 37.2185C38.1934 39.3728 36.8131 41.1685 34.8858 42.2779C33.6036 43.0184 32.1768 43.4002 30.732 43.4002C30.0044 43.4002 29.2795 43.3073 28.5596 43.1086C26.4105 42.5359 24.6122 41.1556 23.4977 39.2283ZM24.8315 38.462C25.7422 40.0333 27.2103 41.1633 28.9595 41.6329C30.7165 42.1024 32.5457 41.8651 34.1169 40.9518C35.6881 40.0411 36.8181 38.573 37.2877 36.8238C37.7573 35.0668 37.5199 33.2376 36.6066 31.6664C35.6959 30.0952 34.2279 28.9652 32.4786 28.4956C31.8904 28.3382 31.3022 28.2634 30.7216 28.2634C27.7159 28.2634 24.9631 30.2706 24.1504 33.3021C23.6834 35.0539 23.9208 36.8908 24.8315 38.462Z"/>
</mask>
<path d="M40.1278 9.2824C40.2852 8.88508 40.7367 8.7019 41.1263 8.85928C46.2321 10.913 50.5843 14.4011 53.7216 18.952C56.9311 23.6089 58.6236 29.0759 58.6236 34.752C58.6236 35.8614 58.5565 36.9785 58.4249 38.075C58.3785 38.4646 58.0483 38.7561 57.6665 38.7561C57.6329 38.7561 57.6071 38.7561 57.5736 38.7483C57.1505 38.6967 56.8538 38.3201 56.9002 37.8969C57.0266 36.8598 57.086 35.8019 57.086 34.7519C57.086 23.926 50.5947 14.3233 40.5535 10.2806C40.1614 10.1206 39.9679 9.67197 40.1278 9.2824ZM46.7197 55.7067C42.0887 59.2465 36.5543 61.117 30.7164 61.117C25.141 61.117 19.8105 59.3987 15.3087 56.1505C14.9656 55.9002 14.4831 55.9776 14.238 56.3234C13.9878 56.6665 14.0652 57.149 14.4109 57.3941C19.1787 60.8358 24.8213 62.6521 30.7187 62.6521C36.9004 62.6521 42.7593 60.6706 47.6541 56.9245C47.992 56.6665 48.0565 56.184 47.7985 55.8486C47.538 55.5081 47.0551 55.4487 46.7197 55.7067ZM3.8065 39.0501C3.84004 39.0501 3.87358 39.0501 3.90454 39.0424C4.32767 38.9908 4.62433 38.5986 4.56502 38.1833C4.42054 37.0532 4.34057 35.8974 4.34057 34.7493C4.34057 23.9234 10.8318 14.3207 20.873 10.2779C21.2703 10.1205 21.4535 9.66904 21.2961 9.27948C21.1387 8.88216 20.6872 8.69898 20.2977 8.85636C15.1918 10.91 10.8396 14.3982 7.70235 18.9491C4.49282 23.606 2.80034 29.0729 2.80034 34.7491C2.80034 35.9642 2.88032 37.1794 3.03254 38.3817C3.1022 38.7661 3.43239 39.0501 3.8065 39.0501ZM24.0984 7.61799C24.0984 3.96476 27.0705 1 30.7164 1C34.3619 0.997422 37.3416 3.96442 37.3416 7.61799C37.3416 11.2716 34.3695 14.236 30.7236 14.236C27.0755 14.236 24.0984 11.269 24.0984 7.61799ZM25.636 7.61799C25.636 10.4173 27.9141 12.7031 30.7212 12.7031C33.5282 12.7031 35.8063 10.425 35.8063 7.61799C35.8063 4.81096 33.5282 2.53284 30.7212 2.53284C27.9141 2.53026 25.636 4.81611 25.636 7.61799ZM61 48.0386C61 51.6918 58.0279 54.6566 54.382 54.6566C50.7365 54.6566 47.764 51.6844 47.764 48.0386C47.764 44.3927 50.7362 41.4206 54.382 41.4206C58.0275 41.4206 61 44.3927 61 48.0386ZM59.4675 48.0386C59.4675 45.2393 57.1894 42.9534 54.3823 42.9534C51.583 42.9534 49.2972 45.2316 49.2972 48.0386C49.2972 50.8456 51.5753 53.1237 54.3823 53.1237C57.1816 53.1237 59.4675 50.8456 59.4675 48.0386ZM14.238 48.0386C14.238 51.6918 11.2658 54.6566 7.61997 54.6566C3.97189 54.6566 1 51.6896 1 48.0386C1 44.3853 3.97215 41.4206 7.61799 41.4206C11.2661 41.4206 14.238 44.3927 14.238 48.0386ZM12.7055 48.0386C12.7055 45.2393 10.4273 42.9534 7.6203 42.9534C4.821 42.9534 2.53515 45.2316 2.53515 48.0386C2.53515 50.8456 4.81327 53.1237 7.6203 53.1237C10.4273 53.1237 12.7055 50.8456 12.7055 48.0386ZM21.186 21.9292C21.5756 21.5397 22.1973 21.5267 22.5998 21.9086L24.349 23.5598C25.2133 23.0773 26.1318 22.7006 27.0761 22.4298L27.1483 20.0252C27.169 19.4705 27.6101 19.0422 28.1649 19.0422H33.2577C33.8124 19.0422 34.2562 19.4783 34.2743 20.0252L34.3465 22.4298C35.2985 22.7007 36.2093 23.0825 37.0736 23.5598L38.8306 21.9086C39.2331 21.5319 39.8548 21.5397 40.2444 21.9292L43.8435 25.5283C44.233 25.9179 44.2459 26.5396 43.8641 26.9421L42.2284 28.6991C42.7108 29.5634 43.0875 30.4767 43.3584 31.4262L45.7629 31.4984C46.3176 31.5191 46.7459 31.9602 46.7459 32.515V37.6078C46.7459 38.1625 46.3099 38.6063 45.7629 38.6244L43.3584 38.6966C43.0875 39.6486 42.7056 40.5594 42.2284 41.4237L43.8796 43.1807C44.2562 43.5831 44.2485 44.2049 43.8589 44.5945L40.2598 48.1936C39.8703 48.5831 39.2485 48.596 38.846 48.2142L37.089 46.563C36.2247 47.0455 35.3063 47.4222 34.362 47.693L34.2897 50.0976C34.2768 50.6522 33.8279 51.0805 33.2732 51.0805H28.1803C27.6256 51.0805 27.1819 50.6445 27.1638 50.0976L27.0915 47.693C26.1395 47.4221 25.2236 47.0403 24.3567 46.5578L22.6075 48.209C22.2051 48.5857 21.5833 48.5779 21.1937 48.1883L17.5946 44.5893C17.2051 44.1997 17.1922 43.5779 17.574 43.1755L19.2252 41.4262C18.7427 40.5619 18.366 39.6435 18.09 38.6915L15.6854 38.6192C15.1307 38.5986 14.7024 38.1574 14.7024 37.6027V32.5098C14.7024 31.9551 15.1385 31.5114 15.6854 31.4933L18.09 31.421C18.3609 30.469 18.7427 29.5531 19.2252 28.6862L17.574 26.937C17.1973 26.5346 17.2051 25.9128 17.5946 25.5232L21.186 21.9292ZM19.0266 26.2559L20.5926 27.92C20.91 28.2502 20.9616 28.7456 20.7242 29.1351C20.1566 30.0871 19.7335 31.1088 19.4626 32.1795C19.349 32.6233 18.9672 32.9329 18.5054 32.9458L16.2195 33.0129V37.0944L18.5054 37.1615C18.962 37.1744 19.3439 37.484 19.4626 37.9278C19.7335 38.9985 20.1617 40.0228 20.7242 40.9722C20.9564 41.3695 20.9022 41.8571 20.5926 42.1874L19.0266 43.8514L21.9136 46.7384L23.5776 45.1724C23.9079 44.855 24.3955 44.8034 24.7928 45.0408C25.7448 45.6084 26.7665 46.0315 27.8372 46.3025C28.281 46.416 28.5905 46.7978 28.6035 47.2545L28.6706 49.5403H32.7521L32.8192 47.2545C32.8321 46.7978 33.1417 46.416 33.5855 46.2973C34.6562 46.0264 35.6805 45.6033 36.6299 45.0357C37.0272 44.8035 37.5148 44.8576 37.845 45.1672L39.5168 46.7333L42.4039 43.8463L40.8404 42.1925C40.5308 41.8623 40.4714 41.3746 40.7088 40.9774C41.2712 40.0253 41.6995 39.0037 41.9704 37.9381C42.084 37.4944 42.4658 37.1848 42.9225 37.1718L45.2083 37.0996V33.0103L42.9225 32.938C42.4658 32.9251 42.084 32.6156 41.9704 32.1718C41.6995 31.1011 41.2764 30.0768 40.7088 29.1325C40.4766 28.7352 40.5308 28.2476 40.8404 27.9174L42.4064 26.2533L39.5194 23.3688L37.8476 24.9349C37.5096 25.2445 37.022 25.3038 36.6325 25.0665C35.6805 24.504 34.6588 24.0835 33.5932 23.8048C33.1495 23.6913 32.8399 23.3095 32.8269 22.8528L32.7547 20.567H28.6654L28.5932 22.8528C28.5803 23.3095 28.2707 23.6913 27.8269 23.8048C26.7562 24.0757 25.7319 24.504 24.7825 25.0665C24.3851 25.2987 23.8976 25.2445 23.5673 24.9349L21.9032 23.3688L19.0266 26.2559ZM23.4977 39.2283C22.3805 37.2985 22.0916 35.0539 22.6643 32.9022C23.8537 28.4646 28.4358 25.8153 32.876 27.0095C35.0303 27.5848 36.826 28.9651 37.9354 30.8924C39.0525 32.8222 39.3415 35.0668 38.7687 37.2185C38.1934 39.3728 36.8131 41.1685 34.8858 42.2779C33.6036 43.0184 32.1768 43.4002 30.732 43.4002C30.0044 43.4002 29.2795 43.3073 28.5596 43.1086C26.4105 42.5359 24.6122 41.1556 23.4977 39.2283ZM24.8315 38.462C25.7422 40.0333 27.2103 41.1633 28.9595 41.6329C30.7165 42.1024 32.5457 41.8651 34.1169 40.9518C35.6881 40.0411 36.8181 38.573 37.2877 36.8238C37.7573 35.0668 37.5199 33.2376 36.6066 31.6664C35.6959 30.0952 34.2279 28.9652 32.4786 28.4956C31.8904 28.3382 31.3022 28.2634 30.7216 28.2634C27.7159 28.2634 24.9631 30.2706 24.1504 33.3021C23.6834 35.0539 23.9208 36.8908 24.8315 38.462Z" fill="#2ED88E"/>
<path d="M40.1278 9.2824C40.2852 8.88508 40.7367 8.7019 41.1263 8.85928C46.2321 10.913 50.5843 14.4011 53.7216 18.952C56.9311 23.6089 58.6236 29.0759 58.6236 34.752C58.6236 35.8614 58.5565 36.9785 58.4249 38.075C58.3785 38.4646 58.0483 38.7561 57.6665 38.7561C57.6329 38.7561 57.6071 38.7561 57.5736 38.7483C57.1505 38.6967 56.8538 38.3201 56.9002 37.8969C57.0266 36.8598 57.086 35.8019 57.086 34.7519C57.086 23.926 50.5947 14.3233 40.5535 10.2806C40.1614 10.1206 39.9679 9.67197 40.1278 9.2824ZM46.7197 55.7067C42.0887 59.2465 36.5543 61.117 30.7164 61.117C25.141 61.117 19.8105 59.3987 15.3087 56.1505C14.9656 55.9002 14.4831 55.9776 14.238 56.3234C13.9878 56.6665 14.0652 57.149 14.4109 57.3941C19.1787 60.8358 24.8213 62.6521 30.7187 62.6521C36.9004 62.6521 42.7593 60.6706 47.6541 56.9245C47.992 56.6665 48.0565 56.184 47.7985 55.8486C47.538 55.5081 47.0551 55.4487 46.7197 55.7067ZM3.8065 39.0501C3.84004 39.0501 3.87358 39.0501 3.90454 39.0424C4.32767 38.9908 4.62433 38.5986 4.56502 38.1833C4.42054 37.0532 4.34057 35.8974 4.34057 34.7493C4.34057 23.9234 10.8318 14.3207 20.873 10.2779C21.2703 10.1205 21.4535 9.66904 21.2961 9.27948C21.1387 8.88216 20.6872 8.69898 20.2977 8.85636C15.1918 10.91 10.8396 14.3982 7.70235 18.9491C4.49282 23.606 2.80034 29.0729 2.80034 34.7491C2.80034 35.9642 2.88032 37.1794 3.03254 38.3817C3.1022 38.7661 3.43239 39.0501 3.8065 39.0501ZM24.0984 7.61799C24.0984 3.96476 27.0705 1 30.7164 1C34.3619 0.997422 37.3416 3.96442 37.3416 7.61799C37.3416 11.2716 34.3695 14.236 30.7236 14.236C27.0755 14.236 24.0984 11.269 24.0984 7.61799ZM25.636 7.61799C25.636 10.4173 27.9141 12.7031 30.7212 12.7031C33.5282 12.7031 35.8063 10.425 35.8063 7.61799C35.8063 4.81096 33.5282 2.53284 30.7212 2.53284C27.9141 2.53026 25.636 4.81611 25.636 7.61799ZM61 48.0386C61 51.6918 58.0279 54.6566 54.382 54.6566C50.7365 54.6566 47.764 51.6844 47.764 48.0386C47.764 44.3927 50.7362 41.4206 54.382 41.4206C58.0275 41.4206 61 44.3927 61 48.0386ZM59.4675 48.0386C59.4675 45.2393 57.1894 42.9534 54.3823 42.9534C51.583 42.9534 49.2972 45.2316 49.2972 48.0386C49.2972 50.8456 51.5753 53.1237 54.3823 53.1237C57.1816 53.1237 59.4675 50.8456 59.4675 48.0386ZM14.238 48.0386C14.238 51.6918 11.2658 54.6566 7.61997 54.6566C3.97189 54.6566 1 51.6896 1 48.0386C1 44.3853 3.97215 41.4206 7.61799 41.4206C11.2661 41.4206 14.238 44.3927 14.238 48.0386ZM12.7055 48.0386C12.7055 45.2393 10.4273 42.9534 7.6203 42.9534C4.821 42.9534 2.53515 45.2316 2.53515 48.0386C2.53515 50.8456 4.81327 53.1237 7.6203 53.1237C10.4273 53.1237 12.7055 50.8456 12.7055 48.0386ZM21.186 21.9292C21.5756 21.5397 22.1973 21.5267 22.5998 21.9086L24.349 23.5598C25.2133 23.0773 26.1318 22.7006 27.0761 22.4298L27.1483 20.0252C27.169 19.4705 27.6101 19.0422 28.1649 19.0422H33.2577C33.8124 19.0422 34.2562 19.4783 34.2743 20.0252L34.3465 22.4298C35.2985 22.7007 36.2093 23.0825 37.0736 23.5598L38.8306 21.9086C39.2331 21.5319 39.8548 21.5397 40.2444 21.9292L43.8435 25.5283C44.233 25.9179 44.2459 26.5396 43.8641 26.9421L42.2284 28.6991C42.7108 29.5634 43.0875 30.4767 43.3584 31.4262L45.7629 31.4984C46.3176 31.5191 46.7459 31.9602 46.7459 32.515V37.6078C46.7459 38.1625 46.3099 38.6063 45.7629 38.6244L43.3584 38.6966C43.0875 39.6486 42.7056 40.5594 42.2284 41.4237L43.8796 43.1807C44.2562 43.5831 44.2485 44.2049 43.8589 44.5945L40.2598 48.1936C39.8703 48.5831 39.2485 48.596 38.846 48.2142L37.089 46.563C36.2247 47.0455 35.3063 47.4222 34.362 47.693L34.2897 50.0976C34.2768 50.6522 33.8279 51.0805 33.2732 51.0805H28.1803C27.6256 51.0805 27.1819 50.6445 27.1638 50.0976L27.0915 47.693C26.1395 47.4221 25.2236 47.0403 24.3567 46.5578L22.6075 48.209C22.2051 48.5857 21.5833 48.5779 21.1937 48.1883L17.5946 44.5893C17.2051 44.1997 17.1922 43.5779 17.574 43.1755L19.2252 41.4262C18.7427 40.5619 18.366 39.6435 18.09 38.6915L15.6854 38.6192C15.1307 38.5986 14.7024 38.1574 14.7024 37.6027V32.5098C14.7024 31.9551 15.1385 31.5114 15.6854 31.4933L18.09 31.421C18.3609 30.469 18.7427 29.5531 19.2252 28.6862L17.574 26.937C17.1973 26.5346 17.2051 25.9128 17.5946 25.5232L21.186 21.9292ZM19.0266 26.2559L20.5926 27.92C20.91 28.2502 20.9616 28.7456 20.7242 29.1351C20.1566 30.0871 19.7335 31.1088 19.4626 32.1795C19.349 32.6233 18.9672 32.9329 18.5054 32.9458L16.2195 33.0129V37.0944L18.5054 37.1615C18.962 37.1744 19.3439 37.484 19.4626 37.9278C19.7335 38.9985 20.1617 40.0228 20.7242 40.9722C20.9564 41.3695 20.9022 41.8571 20.5926 42.1874L19.0266 43.8514L21.9136 46.7384L23.5776 45.1724C23.9079 44.855 24.3955 44.8034 24.7928 45.0408C25.7448 45.6084 26.7665 46.0315 27.8372 46.3025C28.281 46.416 28.5905 46.7978 28.6035 47.2545L28.6706 49.5403H32.7521L32.8192 47.2545C32.8321 46.7978 33.1417 46.416 33.5855 46.2973C34.6562 46.0264 35.6805 45.6033 36.6299 45.0357C37.0272 44.8035 37.5148 44.8576 37.845 45.1672L39.5168 46.7333L42.4039 43.8463L40.8404 42.1925C40.5308 41.8623 40.4714 41.3746 40.7088 40.9774C41.2712 40.0253 41.6995 39.0037 41.9704 37.9381C42.084 37.4944 42.4658 37.1848 42.9225 37.1718L45.2083 37.0996V33.0103L42.9225 32.938C42.4658 32.9251 42.084 32.6156 41.9704 32.1718C41.6995 31.1011 41.2764 30.0768 40.7088 29.1325C40.4766 28.7352 40.5308 28.2476 40.8404 27.9174L42.4064 26.2533L39.5194 23.3688L37.8476 24.9349C37.5096 25.2445 37.022 25.3038 36.6325 25.0665C35.6805 24.504 34.6588 24.0835 33.5932 23.8048C33.1495 23.6913 32.8399 23.3095 32.8269 22.8528L32.7547 20.567H28.6654L28.5932 22.8528C28.5803 23.3095 28.2707 23.6913 27.8269 23.8048C26.7562 24.0757 25.7319 24.504 24.7825 25.0665C24.3851 25.2987 23.8976 25.2445 23.5673 24.9349L21.9032 23.3688L19.0266 26.2559ZM23.4977 39.2283C22.3805 37.2985 22.0916 35.0539 22.6643 32.9022C23.8537 28.4646 28.4358 25.8153 32.876 27.0095C35.0303 27.5848 36.826 28.9651 37.9354 30.8924C39.0525 32.8222 39.3415 35.0668 38.7687 37.2185C38.1934 39.3728 36.8131 41.1685 34.8858 42.2779C33.6036 43.0184 32.1768 43.4002 30.732 43.4002C30.0044 43.4002 29.2795 43.3073 28.5596 43.1086C26.4105 42.5359 24.6122 41.1556 23.4977 39.2283ZM24.8315 38.462C25.7422 40.0333 27.2103 41.1633 28.9595 41.6329C30.7165 42.1024 32.5457 41.8651 34.1169 40.9518C35.6881 40.0411 36.8181 38.573 37.2877 36.8238C37.7573 35.0668 37.5199 33.2376 36.6066 31.6664C35.6959 30.0952 34.2279 28.9652 32.4786 28.4956C31.8904 28.3382 31.3022 28.2634 30.7216 28.2634C27.7159 28.2634 24.9631 30.2706 24.1504 33.3021C23.6834 35.0539 23.9208 36.8908 24.8315 38.462Z" stroke="#2ED88E" stroke-width="2" mask="url(#path-2-outside-1_2272_20850)"/>
<path d="M57.5736 38.7483C57.1505 38.6967 56.8538 38.3201 56.9002 37.8969C57.0266 36.8598 57.086 35.8019 57.086 34.7519C57.086 23.926 50.5947 14.3233 40.5535 10.2806C40.1614 10.1206 39.9679 9.67197 40.1278 9.2824M57.5736 38.7483L57.4611 39.2355C57.4712 39.2379 57.4811 39.2399 57.4907 39.2417M57.5736 38.7483C57.6071 38.7561 57.6329 38.7561 57.6665 38.7561C58.0483 38.7561 58.3785 38.4646 58.4249 38.075M57.5736 38.7483L57.5131 39.2447C57.5056 39.2438 57.4981 39.2428 57.4907 39.2417M57.4907 39.2417C56.8063 39.1464 56.3279 38.5288 56.4032 37.8424L56.4039 37.8364L56.4039 37.8364C56.5277 36.8209 56.586 35.7834 56.586 34.7519C56.586 24.1302 50.2189 14.711 40.3668 10.7444L40.3647 10.7435C39.7238 10.4821 39.3985 9.74638 39.6642 9.09509M57.4907 39.2417C57.5674 39.2563 57.6298 39.2562 57.6609 39.2561L57.6665 39.2561C58.3042 39.2561 58.8453 38.7725 58.9214 38.1342M39.6642 9.09509C39.6638 9.09615 39.6634 9.0972 39.663 9.09826L40.1278 9.2824M39.6642 9.09509C39.6646 9.09422 39.665 9.09335 39.6653 9.09248L40.1278 9.2824M39.6642 9.09509L40.1278 9.2824M58.4249 38.075L41.3129 8.3954C41.313 8.39543 41.313 8.39547 41.3131 8.3955C46.5104 10.486 50.9406 14.037 54.1333 18.6683L54.1333 18.6683C57.4007 23.4092 59.1236 28.9752 59.1236 34.752C59.1236 35.8812 59.0553 37.0181 58.9214 38.1342M58.4249 38.075L58.9214 38.1342M58.4249 38.075L58.9214 38.1346C58.9214 38.1344 58.9214 38.1343 58.9214 38.1342M7.29065 18.6654L7.29068 18.6653C10.4834 14.034 14.9137 10.483 20.1111 8.39247M7.29065 18.6654L20.2977 8.85636M7.29065 18.6654C4.0232 23.4063 2.30034 28.9723 2.30034 34.7491C2.30034 35.9861 2.38176 37.2223 2.5365 38.4445L2.53818 38.4577L2.54055 38.4709C2.65082 39.0793 3.17686 39.5501 3.8065 39.5501C3.80795 39.5501 3.80977 39.5502 3.81195 39.5502C3.83694 39.5504 3.90853 39.5509 3.98856 39.5356M7.29065 18.6654L3.90454 39.0424M20.1111 8.39247L20.2977 8.85636M20.1111 8.39247C20.1108 8.39257 20.1106 8.39266 20.1104 8.39276L20.2977 8.85636M20.1111 8.39247C20.7495 8.13499 21.4973 8.43214 21.7604 9.09381M20.2977 8.85636C20.6872 8.69898 21.1387 8.88216 21.2961 9.27948M21.7604 9.09381C21.7601 9.09327 21.7599 9.09273 21.7597 9.09218L21.2961 9.27948M21.7604 9.09381C22.0172 9.73209 21.72 10.4793 21.0585 10.7422M21.7604 9.09381C21.7606 9.09432 21.7608 9.09483 21.761 9.09534L21.2961 9.27948M21.2961 9.27948L21.0585 10.7422M21.0585 10.7422C21.0589 10.7421 21.0593 10.7419 21.0597 10.7417L20.873 10.2779L21.0571 10.7428C21.0576 10.7426 21.0581 10.7424 21.0585 10.7422ZM21.0585 10.7422C11.2071 14.7092 4.84057 24.128 4.84057 34.7493C4.84057 35.8734 4.91882 37.0069 5.06058 38.1167M21.0585 10.7422L4.56502 38.1833M5.06058 38.1167C5.06039 38.1153 5.0602 38.1139 5.06 38.1126L4.56502 38.1833M5.06058 38.1167C5.06071 38.1177 5.06085 38.1188 5.06098 38.1198L4.56502 38.1833M5.06058 38.1167C5.15578 38.7993 4.67663 39.4388 3.98856 39.5356M4.56502 38.1833C4.62433 38.5986 4.32767 38.9908 3.90454 39.0424M3.98856 39.5356C4.00082 39.5333 4.01328 39.5306 4.0258 39.5275L3.90454 39.0424M3.98856 39.5356C3.98076 39.5367 3.97293 39.5378 3.96507 39.5387L3.90454 39.0424M30.7164 60.617C36.4446 60.617 41.872 58.7826 46.4157 55.3098C46.4158 55.3097 46.416 55.3096 46.4161 55.3095L46.7197 55.7067L30.7164 60.617ZM30.7164 60.617C25.2459 60.617 20.0183 58.9317 15.6022 55.7457M30.7164 60.617L15.6022 55.7457M15.6022 55.7457C15.0366 55.3341 14.24 55.4593 13.8321 56.0314C13.4216 56.5973 13.5475 57.3933 14.1199 57.8006C18.973 61.3034 24.7175 63.1521 30.7187 63.1521C37.0099 63.1521 42.9756 61.1347 47.9579 57.3215C48.5139 56.8967 48.6224 56.1007 48.1956 55.5448L15.6022 55.7457ZM30.7207 3.03284H30.7212C33.2521 3.03284 35.3063 5.0871 35.3063 7.61799C35.3063 10.1489 33.2521 12.2031 30.7212 12.2031C28.1908 12.2031 26.136 10.1416 26.136 7.61799C26.136 5.0915 28.1909 3.03051 30.7207 3.03284ZM30.7162 0.500002C26.7947 0.500081 23.5984 3.6883 23.5984 7.61799C23.5984 11.546 26.8003 14.736 30.7236 14.736C34.6452 14.736 37.8416 11.5481 37.8416 7.61799C37.8416 3.68761 34.6373 0.497419 30.7164 0.500002H30.7162ZM54.382 55.1566C58.3036 55.1566 61.5 51.9683 61.5 48.0386C61.5 44.1166 58.3036 40.9206 54.382 40.9206C50.46 40.9206 47.264 44.1166 47.264 48.0386C47.264 51.9606 50.4604 55.1566 54.382 55.1566ZM54.3823 43.4534C56.9127 43.4534 58.9675 45.5149 58.9675 48.0386C58.9675 50.569 56.906 52.6237 54.3823 52.6237C51.8515 52.6237 49.7972 50.5695 49.7972 48.0386C49.7972 45.5082 51.8587 43.4534 54.3823 43.4534ZM7.61997 55.1566C11.5416 55.1566 14.738 51.9683 14.738 48.0386C14.738 44.1165 11.5421 40.9206 7.61799 40.9206C3.69637 40.9206 0.5 44.1088 0.5 48.0386C0.5 51.9661 3.69608 55.1566 7.61997 55.1566ZM7.6203 43.4534C10.1507 43.4534 12.2055 45.5149 12.2055 48.0386C12.2055 50.5695 10.1512 52.6237 7.6203 52.6237C5.08941 52.6237 3.03515 50.5695 3.03515 48.0386C3.03515 45.5082 5.09665 43.4534 7.6203 43.4534Z" fill="white" stroke="white"/>
</svg>
