<svg width="75" height="58" viewBox="0 0 75 58" fill="none" xmlns="http://www.w3.org/2000/svg">
<path d="M46.704 51.1228L46.7083 51.1254C48.6942 52.3667 51.0134 53.0301 53.4186 53.0301H53.4191H53.4196H53.4201H53.4206H53.4211H53.4216H53.4221H53.4227H53.4232H53.4237H53.4242H53.4247H53.4253H53.4258H53.4263H53.4269H53.4274H53.4279H53.4285H53.429H53.4296H53.4301H53.4307H53.4312H53.4318H53.4323H53.4329H53.4334H53.434H53.4345H53.4351H53.4357H53.4362H53.4368H53.4374H53.4379H53.4385H53.4391H53.4397H53.4402H53.4408H53.4414H53.442H53.4426H53.4431H53.4437H53.4443H53.4449H53.4455H53.4461H53.4467H53.4473H53.4479H53.4485H53.4491H53.4497H53.4503H53.4509H53.4515H53.4521H53.4527H53.4533H53.4539H53.4545H53.4552H53.4558H53.4564H53.457H53.4576H53.4583H53.4589H53.4595H53.4601H53.4608H53.4614H53.462H53.4627H53.4633H53.4639H53.4646H53.4652H53.4658H53.4665H53.4671H53.4678H53.4684H53.4691H53.4697H53.4704H53.471H53.4717H53.4723H53.473H53.4736H53.4743H53.4749H53.4756H53.4763H53.4769H53.4776H53.4782H53.4789H53.4796H53.4802H53.4809H53.4816H53.4823H53.4829H53.4836H53.4843H53.4849H53.4856H53.4863H53.487H53.4877H53.4883H53.489H53.4897H53.4904H53.4911H53.4918H53.4925H53.4931H53.4938H53.4945H53.4952H53.4959H53.4966H53.4973H53.498H53.4987H53.4994H53.5001H53.5008H53.5015H53.5022H53.5029H53.5036H53.5043H53.505H53.5057H53.5064H53.5071H53.5078H53.5085H53.5092H53.5099H53.5107H53.5114H53.5121H53.5128H53.5135H53.5142H53.5149H53.5157H53.5164H53.5171H53.5178H53.5185H53.5193H53.52H53.5207H53.5214H53.5221H53.5229H53.5236H53.5243H53.5251H53.5258H53.5265H53.5272H53.528H53.5287H53.5294H53.5302H53.5309H53.5316H53.5324H53.5331H53.5338H53.5346H53.5353H53.536H53.5368H53.5375H53.5382H53.539H53.5397H53.5405H53.5412H53.5419H53.5427H53.5434H53.5442H53.5449H53.5456H53.5464H53.5471H53.5479H53.5486H53.5494H53.5501H53.5509H53.5516H53.5524H53.5531H53.5538H53.5546H53.5553H53.5561H53.5568H53.5576H53.5583H53.5591H53.5598H53.5606H53.5613H53.5621H53.5628H53.5636H53.5643H53.5651H53.5659H53.5666H53.5674H53.5681H53.5689H53.5696H53.5704H53.5711H53.5719H53.5726H53.5734H53.5741H53.5749H53.5757H53.5764H53.5772H53.5779H53.5787H53.5794H53.5802H53.5809H53.5817H53.5825H53.5832H53.584H53.5847H53.5855H53.5862H53.587H53.5878H53.5885H53.5893H53.59H53.5908H53.5915H53.5923H53.5931H53.5938H53.5946H53.5953H53.5961H53.5968H53.5976H53.5984H53.5991H53.5999H53.6006H53.6014H53.6021H53.6029H53.6036H53.6044H53.6052H53.6059H53.6067H53.6074H53.6082H53.6089H53.6097H53.6104H53.6112H53.6119H53.6127H53.6135H53.6142H53.615H53.6157H53.6165H53.6172H53.618H53.6187H53.6195H53.6202H53.621H53.6217H53.6225H53.6232H53.624H53.6247H53.6255H53.6262H53.627H53.6277H53.6285H53.6292H53.63H53.6307H53.6315H53.6322H53.6329H53.6337H53.6344H53.6352H53.6359H53.6367H53.6374H53.6381H53.6389H53.6396H53.6404H53.6411H53.6418H53.6426H53.6433H53.6441H53.6448H53.6455H53.6463H53.647H53.6477H53.6485H53.6492H53.6499H53.6507H53.6514H53.6521H53.6529H53.6536H53.6543H53.6551H53.6558H53.6565H53.6572H53.658H53.6587H53.6594H53.6601H53.6609H53.6616H53.6623H53.663H53.6637H53.6645H53.6652H53.6659H53.6666H53.6673H53.6681H53.6688H53.6695H53.6702H53.6709H53.6716H53.6723H53.673H53.6737H53.6745H53.6752H53.6759H53.6766H53.6773H53.678H53.6787H53.6794H53.6801H53.6808H53.6815H53.6822H53.6829H53.6836H53.6843H53.685H53.6857H53.6864H53.687H53.6877H53.6884H53.6891H53.6898H53.6905H53.6912H53.6919H53.6925H53.6932H53.6939H53.6946H53.6953H53.6959H53.6966H53.6973H53.698H53.6986H53.6993H53.7H53.7006H53.7013H53.702H53.7027H53.7033H53.704H53.7046H53.7053H53.706H53.7066H53.7073H53.7079H53.7086H53.7092H53.7099H53.7105H53.7112H53.7118H53.7125H53.7131H53.7138H53.7144H53.7151H53.7157H53.7164H53.717H53.7176H53.7183H53.7189H53.7195H53.7202H53.7208H53.7214H53.722H53.7227H53.7233H53.7239H53.7245H53.7252H53.7258H53.7264H53.727H53.7276H53.7282H53.7289H53.7295H53.7301H53.7307H53.7313H53.7319H53.7325H53.7331H53.7337H53.7343H53.7349H53.7355H53.7361H53.7367H53.7373H53.7378H53.7384H53.739H53.7396H53.7402H53.7408H53.7413H53.7419H53.7425H53.7431H53.7436H53.7442H53.7448H53.7453H53.7459H53.7465H53.747H53.7476H53.7481H53.7487H53.7492H53.7498H53.7503H53.7509H53.7514H53.752H53.7525H53.7531H53.7536H53.7542H53.7547H53.7552H53.7558H53.7563H53.7567C60.3763 52.8614 65.8461 47.5646 66.3525 41.0243V41.0233V41.0213V41.0193V41.0173V41.0153V41.0134V41.0114V41.0094V41.0074V41.0054V41.0034V41.0014V40.9995V40.9975V40.9955V40.9935V40.9916V40.9896V40.9876V40.9857V40.9837V40.9818V40.9798V40.9778V40.9759V40.9739V40.972V40.97V40.9681V40.9661V40.9642V40.9622V40.9603V40.9583V40.9564V40.9545V40.9525V40.9506V40.9487V40.9467V40.9448V40.9429V40.9409V40.939V40.9371V40.9352V40.9333V40.9313V40.9294V40.9275V40.9256V40.9237V40.9218V40.9198V40.9179V40.916V40.9141V40.9122V40.9103V40.9084V40.9065V40.9046V40.9027V40.9008V40.8989V40.897V40.8951V40.8933V40.8914V40.8895V40.8876V40.8857V40.8838V40.8819V40.8801V40.8782V40.8763V40.8744V40.8726V40.8707V40.8688V40.8669V40.8651V40.8632V40.8613V40.8595V40.8576V40.8557V40.8539V40.852V40.8502V40.8483V40.8464V40.8446V40.8427V40.8409V40.839V40.8372V40.8353V40.8335V40.8316V40.8298V40.8279V40.8261V40.8242V40.8224V40.8205V40.8187V40.8169V40.815V40.8132V40.8113V40.8095V40.8077V40.8058V40.804V40.8022V40.8004V40.7985V40.7967V40.7949V40.793V40.7912V40.7894V40.7876V40.7857V40.7839V40.7821V40.7803V40.7785V40.7766V40.7748V40.773V40.7712V40.7694V40.7676V40.7658V40.7639V40.7621V40.7603V40.7585V40.7567V40.7549V40.7531V40.7513V40.7495V40.7477V40.7459V40.7441V40.7423V40.7405V40.7387V40.7369V40.7351V40.7333V40.7315V40.7297V40.7279V40.7261V40.7243V40.7225V40.7207V40.7189V40.7171V40.7153V40.7135V40.7117V40.7099V40.7081V40.7063V40.7046V40.7028V40.701V40.6992V40.6974V40.6956V40.6938V40.6921V40.6903V40.6885V40.6867V40.6849V40.6831V40.6814V40.6796V40.6778V40.676V40.6742V40.6725V40.6707V40.6689V40.6671V40.6653V40.6636V40.6618V40.66V40.6582V40.6565V40.6547V40.6529V40.6511V40.6494V40.6476V40.6458V40.644V40.6423V40.6405V40.6387V40.637V40.6352V40.6334V40.6316V40.6299V40.6281V40.6263V40.6246V40.6228V40.621V40.6193V40.6175V40.6157V40.6139V40.6122V40.6104V40.6086V40.6069V40.6051V40.6033V40.6016V40.5998V40.598V40.5963V40.5945V40.5927V40.591V40.5892V40.5874V40.5857V40.5839V40.5821V40.5804V40.5786V40.5768V40.5751V40.5733V40.5715V40.5698V40.568V40.5662V40.5645V40.5627V40.5609V40.5592V40.5574V40.5556V40.5539V40.5521V40.5504V40.5486V40.5468V40.545V40.5433V40.5415V40.5397V40.538V40.5362V40.5344V40.5327V40.5309V40.5291V40.5274V40.5256V40.5238V40.5221V40.5203V40.5185V40.5168V40.515V40.5132V40.5115V40.5097V40.5079V40.5061V40.5044V40.5026V40.5008V40.4991V40.4973V40.4955V40.4937V40.492V40.4902V40.4884V40.4866V40.4849V40.4831V40.4813V40.4795V40.4778V40.476V40.4742V40.4724V40.4707V40.4689V40.4671V40.4653V40.4635V40.4618V40.46V40.4582V40.4564V40.4546V40.4529V40.4511V40.4493V40.4475V40.4457V40.4439V40.4421V40.4404V40.4386V40.4368V40.435V40.4332V40.4314V40.4296V40.4278V40.426V40.4243V40.4225V40.4207V40.4189V40.4171V40.4153V40.4135V40.4117V40.4099V40.4081V40.4063V40.4045V40.4027V40.4009V40.3991V40.3973V40.3955V40.3937V40.3919V40.3901V40.3883V40.3865V40.3847V40.3829V40.381V40.3792V40.3774V40.3756V40.3738V40.372V40.3702V40.3684V40.3665V40.3647V40.3629V40.3611V40.3593V40.3575V40.3556V40.3538V40.352V40.3502V40.3483V40.3465V40.3447V40.3429V40.341V40.3392V40.3374V40.3355V40.3337V40.3319V40.33V40.3282V40.3264V40.3245V40.3227V40.3209V40.319V40.3172V40.3153V40.3135V40.3116V40.3098V40.3079V40.3061V40.3042V40.3024V40.3005V40.2987V40.2968V40.295V40.2931V40.2913V40.2894V40.2875V40.2857V40.2838V40.282V40.2801V40.2782V40.2764V40.2745V40.2726V40.2707V40.2689V40.267V40.2651V40.2632V40.2614V40.2595V40.2576V40.2557V40.2538V40.252V40.2501V40.2482V40.2463V40.2444V40.2425V40.2406V40.2387V40.2368V40.2349V40.233V40.2311V40.2292V40.2273V40.2254V40.2235V40.2216V40.2197V40.2178V40.2159V40.214V40.2121V40.2101V40.2082V40.2063V40.2044V40.2025V40.2005V40.1986V40.1967V40.1948V40.1928V40.1909V40.189V40.187V40.1851V40.1831V40.1812V40.1793V40.1773V40.1754V40.1734V40.1715V40.1695V40.1676V40.1656V40.1637V40.1617V40.1598V40.1578V40.1558V40.1539V40.1519V40.1499V40.148V40.146V40.144V40.1421V40.1401V40.1381V40.1361V40.1341V40.1322V40.1302V40.1282V40.1262V40.1242V40.1222V40.1202V40.1182V40.1162V40.1142V40.1122V40.1102V40.1082V40.1062V40.1042V40.1022V40.1002V40.0982V40.0961C66.3525 39.2665 66.2693 38.4422 66.106 37.7073L66.104 37.6981L66.1023 37.6889C65.0257 31.8088 59.8889 27.3311 53.7562 27.1622L46.704 51.1228ZM46.704 51.1228L46.4432 51.5494L46.704 51.1228ZM53.4191 27.1622H53.4186H53.4191ZM53.4191 27.1622H53.4196M53.4191 27.1622H53.4196M53.4196 27.1622H53.4201M53.4196 27.1622H53.4201M53.4201 27.1622H53.4206M53.4201 27.1622H53.4206M53.4206 27.1622H53.4211M53.4206 27.1622H53.4211M53.4211 27.1622H53.4216M53.4211 27.1622H53.4216M53.4216 27.1622H53.4221M53.4216 27.1622H53.4221M53.4221 27.1622H53.4227M53.4221 27.1622H53.4227M53.4227 27.1622H53.4232M53.4227 27.1622H53.4232M53.4232 27.1622H53.4237M53.4232 27.1622H53.4237M53.4237 27.1622H53.4242M53.4237 27.1622H53.4242M53.4242 27.1622H53.4247M53.4242 27.1622H53.4247M53.4247 27.1622H53.4253M53.4247 27.1622H53.4253M53.4253 27.1622H53.4258M53.4253 27.1622H53.4258M53.4258 27.1622H53.4263M53.4258 27.1622H53.4263M53.4263 27.1622H53.4269M53.4263 27.1622H53.4269M53.4269 27.1622H53.4274M53.4269 27.1622H53.4274M53.4274 27.1622H53.4279M53.4274 27.1622H53.4279M53.4279 27.1622H53.4285M53.4279 27.1622H53.4285M53.4285 27.1622H53.429M53.4285 27.1622H53.429M53.429 27.1622H53.4296M53.429 27.1622H53.4296M53.4296 27.1622H53.4301M53.4296 27.1622H53.4301M53.4301 27.1622H53.4307M53.4301 27.1622H53.4307M53.4307 27.1622H53.4312M53.4307 27.1622H53.4312M53.4312 27.1622H53.4318M53.4312 27.1622H53.4318M53.4318 27.1622H53.4323M53.4318 27.1622H53.4323M53.4323 27.1622H53.4329M53.4323 27.1622H53.4329M53.4329 27.1622H53.4334M53.4329 27.1622H53.4334M53.4334 27.1622H53.434M53.4334 27.1622H53.434M53.434 27.1622H53.4345M53.434 27.1622H53.4345M53.4345 27.1622H53.4351M53.4345 27.1622H53.4351M53.4351 27.1622H53.4357M53.4351 27.1622H53.4357M53.4357 27.1622H53.4362M53.4357 27.1622H53.4362M53.4362 27.1622H53.4368M53.4362 27.1622H53.4368M53.4368 27.1622H53.4374M53.4368 27.1622H53.4374M53.4374 27.1622H53.4379M53.4374 27.1622H53.4379M53.4379 27.1622H53.4385M53.4379 27.1622H53.4385M53.4385 27.1622H53.4391M53.4385 27.1622H53.4391M53.4391 27.1622H53.4397M53.4391 27.1622H53.4397M53.4397 27.1622H53.4402M53.4397 27.1622H53.4402M53.4402 27.1622H53.4408M53.4402 27.1622H53.4408M53.4408 27.1622H53.4414M53.4408 27.1622H53.4414M53.4414 27.1622H53.442M53.4414 27.1622H53.442M53.442 27.1622H53.4426M53.442 27.1622H53.4426M53.4426 27.1622H53.4431M53.4426 27.1622H53.4431M53.4431 27.1622H53.4437M53.4431 27.1622H53.4437M53.4437 27.1622H53.4443M53.4437 27.1622H53.4443M53.4443 27.1622H53.4449M53.4443 27.1622H53.4449M53.4449 27.1622H53.4455M53.4449 27.1622H53.4455M53.4455 27.1622H53.4461M53.4455 27.1622H53.4461M53.4461 27.1622H53.4467M53.4461 27.1622H53.4467M53.4467 27.1622H53.4473M53.4467 27.1622H53.4473M53.4473 27.1622H53.4479M53.4473 27.1622H53.4479M53.4479 27.1622H53.4485M53.4479 27.1622H53.4485M53.4485 27.1622H53.4491M53.4485 27.1622H53.4491M53.4491 27.1622H53.4497M53.4491 27.1622H53.4497M53.4497 27.1622H53.4503M53.4497 27.1622H53.4503M53.4503 27.1622H53.4509M53.4503 27.1622H53.4509M53.4509 27.1622H53.4515M53.4509 27.1622H53.4515M53.4515 27.1622H53.4521M53.4515 27.1622H53.4521M53.4521 27.1622H53.4527M53.4521 27.1622H53.4527M53.4527 27.1622H53.4533M53.4527 27.1622H53.4533M53.4533 27.1622H53.4539M53.4533 27.1622H53.4539M53.4539 27.1622H53.4545M53.4539 27.1622H53.4545M53.4545 27.1622H53.4552M53.4545 27.1622H53.4552M53.4552 27.1622H53.4558M53.4552 27.1622H53.4558M53.4558 27.1622H53.4564M53.4558 27.1622H53.4564M53.4564 27.1622H53.457M53.4564 27.1622H53.457M53.457 27.1622H53.4576M53.457 27.1622H53.4576M53.4576 27.1622H53.4583M53.4576 27.1622H53.4583M53.4583 27.1622H53.4589M53.4583 27.1622H53.4589M53.4589 27.1622H53.4595M53.4589 27.1622H53.4595M53.4595 27.1622H53.4601M53.4595 27.1622H53.4601M53.4601 27.1622H53.4608M53.4601 27.1622H53.4608M53.4608 27.1622H53.4614M53.4608 27.1622H53.4614M53.4614 27.1622H53.462M53.4614 27.1622H53.462M53.462 27.1622H53.4627M53.462 27.1622H53.4627M53.4627 27.1622H53.4633M53.4627 27.1622H53.4633M53.4633 27.1622H53.4639M53.4633 27.1622H53.4639M53.4639 27.1622H53.4646M53.4639 27.1622H53.4646M53.4646 27.1622H53.4652M53.4646 27.1622H53.4652M53.4652 27.1622H53.4658M53.4652 27.1622H53.4658M53.4658 27.1622H53.4665M53.4658 27.1622H53.4665M53.4665 27.1622H53.4671M53.4665 27.1622H53.4671M53.4671 27.1622H53.4678M53.4671 27.1622H53.4678M53.4678 27.1622H53.4684M53.4678 27.1622H53.4684M53.4684 27.1622H53.4691M53.4684 27.1622H53.4691M53.4691 27.1622H53.4697M53.4691 27.1622H53.4697M53.4697 27.1622H53.4704M53.4697 27.1622H53.4704M53.4704 27.1622H53.471M53.4704 27.1622H53.471M53.471 27.1622H53.4717M53.471 27.1622H53.4717M53.4717 27.1622H53.4723M53.4717 27.1622H53.4723M53.4723 27.1622H53.473M53.4723 27.1622H53.473M53.473 27.1622H53.4736M53.473 27.1622H53.4736M53.4736 27.1622H53.4743M53.4736 27.1622H53.4743M53.4743 27.1622H53.4749M53.4743 27.1622H53.4749M53.4749 27.1622H53.4756M53.4749 27.1622H53.4756M53.4756 27.1622H53.4763M53.4756 27.1622H53.4763M53.4763 27.1622H53.4769M53.4763 27.1622H53.4769M53.4769 27.1622H53.4776M53.4769 27.1622H53.4776M53.4776 27.1622H53.4782M53.4776 27.1622H53.4782M53.4782 27.1622H53.4789M53.4782 27.1622H53.4789M53.4789 27.1622H53.4796M53.4789 27.1622H53.4796M53.4796 27.1622H53.4802M53.4796 27.1622H53.4802M53.4802 27.1622H53.4809M53.4802 27.1622H53.4809M53.4809 27.1622H53.4816M53.4809 27.1622H53.4816M53.4816 27.1622H53.4823M53.4816 27.1622H53.4823M53.4823 27.1622H53.4829M53.4823 27.1622H53.4829M53.4829 27.1622H53.4836M53.4829 27.1622H53.4836M53.4836 27.1622H53.4843M53.4836 27.1622H53.4843M53.4843 27.1622H53.4849M53.4843 27.1622H53.4849M53.4849 27.1622H53.4856M53.4849 27.1622H53.4856M53.4856 27.1622H53.4863M53.4856 27.1622H53.4863M53.4863 27.1622H53.487M53.4863 27.1622H53.487M53.487 27.1622H53.4877M53.487 27.1622H53.4877M53.4877 27.1622H53.4883M53.4877 27.1622H53.4883M53.4883 27.1622H53.489M53.4883 27.1622H53.489M53.489 27.1622H53.4897M53.489 27.1622H53.4897M53.4897 27.1622H53.4904M53.4897 27.1622H53.4904M53.4904 27.1622H53.4911M53.4904 27.1622H53.4911M53.4911 27.1622H53.4918M53.4911 27.1622H53.4918M53.4918 27.1622H53.4925M53.4918 27.1622H53.4925M53.4925 27.1622H53.4931M53.4925 27.1622H53.4931M53.4931 27.1622H53.4938M53.4931 27.1622H53.4938M53.4938 27.1622H53.4945M53.4938 27.1622H53.4945M53.4945 27.1622H53.4952M53.4945 27.1622H53.4952M53.4952 27.1622H53.4959M53.4952 27.1622H53.4959M53.4959 27.1622H53.4966M53.4959 27.1622H53.4966M53.4966 27.1622H53.4973M53.4966 27.1622H53.4973M53.4973 27.1622H53.498M53.4973 27.1622H53.498M53.498 27.1622H53.4987M53.498 27.1622H53.4987M53.4987 27.1622H53.4994M53.4987 27.1622H53.4994M53.4994 27.1622H53.5001M53.4994 27.1622H53.5001M53.5001 27.1622H53.5008M53.5001 27.1622H53.5008M53.5008 27.1622H53.5015M53.5008 27.1622H53.5015M53.5015 27.1622H53.5022M53.5015 27.1622H53.5022M53.5022 27.1622H53.5029M53.5022 27.1622H53.5029M53.5029 27.1622H53.5036M53.5029 27.1622H53.5036M53.5036 27.1622H53.5043M53.5036 27.1622H53.5043M53.5043 27.1622H53.505M53.5043 27.1622H53.505M53.505 27.1622H53.5057M53.505 27.1622H53.5057M53.5057 27.1622H53.5064M53.5057 27.1622H53.5064M53.5064 27.1622H53.5071M53.5064 27.1622H53.5071M53.5071 27.1622H53.5078M53.5071 27.1622H53.5078M53.5078 27.1622H53.5085M53.5078 27.1622H53.5085M53.5085 27.1622H53.5092M53.5085 27.1622H53.5092M53.5092 27.1622H53.5099M53.5092 27.1622H53.5099M53.5099 27.1622H53.5107M53.5099 27.1622H53.5107M53.5107 27.1622H53.5114M53.5107 27.1622H53.5114M53.5114 27.1622H53.5121M53.5114 27.1622H53.5121M53.5121 27.1622H53.5128M53.5121 27.1622H53.5128M53.5128 27.1622H53.5135M53.5128 27.1622H53.5135M53.5135 27.1622H53.5142M53.5135 27.1622H53.5142M53.5142 27.1622H53.5149M53.5142 27.1622H53.5149M53.5149 27.1622H53.5157M53.5149 27.1622H53.5157M53.5157 27.1622H53.5164M53.5157 27.1622H53.5164M53.5164 27.1622H53.5171M53.5164 27.1622H53.5171M53.5171 27.1622H53.5178M53.5171 27.1622H53.5178M53.5178 27.1622H53.5185M53.5178 27.1622H53.5185M53.5185 27.1622H53.5193M53.5185 27.1622H53.5193M53.5193 27.1622H53.52M53.5193 27.1622H53.52M53.52 27.1622H53.5207M53.52 27.1622H53.5207M53.5207 27.1622H53.5214M53.5207 27.1622H53.5214M53.5214 27.1622H53.5221M53.5214 27.1622H53.5221M53.5221 27.1622H53.5229M53.5221 27.1622H53.5229M53.5229 27.1622H53.5236M53.5229 27.1622H53.5236M53.5236 27.1622H53.5243M53.5236 27.1622H53.5243M53.5243 27.1622H53.5251M53.5243 27.1622H53.5251M53.5251 27.1622H53.5258M53.5251 27.1622H53.5258M53.5258 27.1622H53.5265M53.5258 27.1622H53.5265M53.5265 27.1622H53.5272M53.5265 27.1622H53.5272M53.5272 27.1622H53.528M53.5272 27.1622H53.528M53.528 27.1622H53.5287M53.528 27.1622H53.5287M53.5287 27.1622H53.5294M53.5287 27.1622H53.5294M53.5294 27.1622H53.5302M53.5294 27.1622H53.5302M53.5302 27.1622H53.5309M53.5302 27.1622H53.5309M53.5309 27.1622H53.5316M53.5309 27.1622H53.5316M53.5316 27.1622H53.5324M53.5316 27.1622H53.5324M53.5324 27.1622H53.5331M53.5324 27.1622H53.5331M53.5331 27.1622H53.5338M53.5331 27.1622H53.5338M53.5338 27.1622H53.5346M53.5338 27.1622H53.5346M53.5346 27.1622H53.5353M53.5346 27.1622H53.5353M53.5353 27.1622H53.536M53.5353 27.1622H53.536M53.536 27.1622H53.5368M53.536 27.1622H53.5368M53.5368 27.1622H53.5375M53.5368 27.1622H53.5375M53.5375 27.1622H53.5382M53.5375 27.1622H53.5382M53.5382 27.1622H53.539M53.5382 27.1622H53.539M53.539 27.1622H53.5397M53.539 27.1622H53.5397M53.5397 27.1622H53.5405M53.5397 27.1622H53.5405M53.5405 27.1622H53.5412M53.5405 27.1622H53.5412M53.5412 27.1622H53.5419M53.5412 27.1622H53.5419M53.5419 27.1622H53.5427M53.5419 27.1622H53.5427M53.5427 27.1622H53.5434M53.5427 27.1622H53.5434M53.5434 27.1622H53.5442M53.5434 27.1622H53.5442M53.5442 27.1622H53.5449M53.5442 27.1622H53.5449M53.5449 27.1622H53.5456M53.5449 27.1622H53.5456M53.5456 27.1622H53.5464M53.5456 27.1622H53.5464M53.5464 27.1622H53.5471M53.5464 27.1622H53.5471M53.5471 27.1622H53.5479M53.5471 27.1622H53.5479M53.5479 27.1622H53.5486M53.5479 27.1622H53.5486M53.5486 27.1622H53.5494M53.5486 27.1622H53.5494M53.5494 27.1622H53.5501M53.5494 27.1622H53.5501M53.5501 27.1622H53.5509M53.5501 27.1622H53.5509M53.5509 27.1622H53.5516M53.5509 27.1622H53.5516M53.5516 27.1622H53.5524M53.5516 27.1622H53.5524M53.5524 27.1622H53.5531M53.5524 27.1622H53.5531M53.5531 27.1622H53.5538H53.5531ZM37.6745 45.0759C37.134 45.1072 36.5871 45.1075 36.0233 45.1075C30.3485 45.1075 24.8693 43.327 21.0986 40.2266L21.0987 40.2265L21.088 40.2182L20.313 39.6154L20.0425 39.405L19.7487 39.5813L18.8876 40.098L18.8876 40.0979L18.8817 40.1016C17.1676 41.1627 15.0421 41.6527 13.0041 41.4081L13.0041 41.4081L12.9981 41.4074C7.67552 40.8342 3.8237 36.085 4.31404 30.7581C4.64223 27.5664 6.52379 24.7017 9.38673 23.1444L10.2403 22.7176L10.5455 22.565L10.5146 22.2251L10.4285 21.2778L10.425 21.2393L10.4156 21.2018C10.3474 20.9288 10.3444 20.5644 10.3444 20.2036C10.3444 11.4923 18.3296 4.34179 28.273 4.34179C32.0482 4.34179 35.6578 5.4315 38.7667 7.36239L39.5351 7.87464L39.8124 8.05954L40.0898 7.87464L40.8648 7.35795L40.8733 7.35229L40.8815 7.34629C42.6833 6.03593 44.9033 5.37517 47.1322 5.37517C52.3196 5.37517 56.8487 9.0822 57.8362 14.1845L57.8413 14.2108L57.8492 14.2365L58.1937 15.356L58.2931 15.6791L58.63 15.7072L59.6576 15.7929C65.8555 16.4569 70.5721 21.7491 70.5721 28.0401C70.5721 30.2366 69.9643 32.3163 68.9529 34.1213C66.5358 27.979 60.5023 23.5788 53.5047 23.5788C44.3622 23.5788 36.9012 30.9467 36.9012 40.0961C36.9012 41.8288 37.1803 43.4892 37.6745 45.0759ZM0.563524 30.3123L0.5635 30.3123L0.563025 30.3172C-0.151933 37.7349 5.29685 44.4405 12.7216 45.1577C15.1332 45.4155 17.6142 44.9299 19.7766 43.9471C24.229 47.1777 29.9256 48.9493 36.1095 48.9493C37.2301 48.9493 38.3506 48.8763 39.4706 48.7305C39.4964 48.7749 39.5229 48.8213 39.5505 48.8696L39.5551 48.8776C39.6375 49.0218 39.7301 49.184 39.8253 49.327C40.9822 51.1061 42.4948 52.6187 44.274 53.7756C46.9329 55.5475 50.1275 56.6135 53.5047 56.6135C62.5628 56.6135 70.022 49.2439 70.022 40.0961C70.022 39.7122 70.0243 39.3922 70.0672 39.1375C72.8548 36.2932 74.5 32.3354 74.5 28.0401C74.5 20.2435 68.9708 13.5658 61.4816 12.1046C59.6833 5.84734 53.8827 1.44726 47.3044 1.44726C44.6458 1.44726 42.1455 2.1093 39.8909 3.43511C36.428 1.50401 32.4742 0.5 28.3591 0.5C16.421 0.5 6.58876 9.28819 6.58876 20.2036V20.2046V20.2056V20.2066V20.2076V20.2086V20.2096V20.2106V20.2116V20.2126V20.2136V20.2146V20.2156V20.2166V20.2176V20.2185V20.2195V20.2205V20.2215V20.2224V20.2234V20.2244V20.2253V20.2263V20.2273V20.2282V20.2292V20.2302V20.2311V20.2321V20.233V20.234V20.2349V20.2359V20.2368V20.2378V20.2387V20.2397V20.2406V20.2415V20.2425V20.2434V20.2444V20.2453V20.2462V20.2471V20.2481V20.249V20.2499V20.2508V20.2518V20.2527V20.2536V20.2545V20.2554V20.2563V20.2573V20.2582V20.2591V20.26V20.2609V20.2618V20.2627V20.2636V20.2645V20.2654V20.2663V20.2672V20.2681V20.269V20.2699V20.2708V20.2716V20.2725V20.2734V20.2743V20.2752V20.2761V20.2769V20.2778V20.2787V20.2796V20.2804V20.2813V20.2822V20.2831V20.2839V20.2848V20.2857V20.2865V20.2874V20.2882V20.2891V20.29V20.2908V20.2917V20.2925V20.2934V20.2943V20.2951V20.296V20.2968V20.2977V20.2985V20.2993V20.3002V20.301V20.3019V20.3027V20.3036V20.3044V20.3052V20.3061V20.3069V20.3077V20.3086V20.3094V20.3102V20.3111V20.3119V20.3127V20.3136V20.3144V20.3152V20.316V20.3169V20.3177V20.3185V20.3193V20.3201V20.321V20.3218V20.3226V20.3234V20.3242V20.325V20.3259V20.3267V20.3275V20.3283V20.3291V20.3299V20.3307V20.3315V20.3323V20.3331V20.3339V20.3347V20.3355V20.3363V20.3371V20.3379V20.3387V20.3395V20.3403V20.3411V20.3419V20.3427V20.3435V20.3443V20.3451V20.3459V20.3467V20.3475V20.3483V20.3491V20.3498V20.3506V20.3514V20.3522V20.353V20.3538V20.3546V20.3553V20.3561V20.3569V20.3577V20.3585V20.3593V20.36V20.3604C3.1471 22.6092 1 26.2094 0.563524 30.3123Z" fill="white" stroke="white"/>
<path d="M58 42.6357C58 42.7546 58 42.8141 58 42.9331C57.942 43.4089 57.8261 43.8848 57.5942 44.3011C57.3043 44.8364 56.8986 45.2528 56.3768 45.5502C55.8551 45.9071 55.2174 46.0855 54.5217 46.145V48.1078C54.5217 48.4052 54.4638 48.6431 54.4638 48.7621C54.4058 48.881 54.2899 49 54.058 49C53.8841 49 53.7681 48.9405 53.6522 48.8216C53.5942 48.7026 53.5362 48.5242 53.5362 48.2862V46.145C52.9565 46.0855 52.4348 45.9071 51.971 45.7286C51.7971 45.6691 51.6232 45.5502 51.5072 45.4312C51.2754 45.3123 51.0435 45.1338 50.8696 44.8959C50.6957 44.7175 50.5797 44.539 50.4638 44.3606C50.3478 44.1822 50.2899 44.0632 50.2319 43.8848C50.1159 43.5279 50 43.171 50 42.8736C50 42.6357 50.058 42.4572 50.1739 42.2788C50.1739 42.2193 50.2319 42.2193 50.2899 42.1599C50.4638 41.9814 50.6377 41.9219 50.8696 41.8625C50.9275 41.8625 50.9275 41.8625 50.9855 41.8625C51.2174 41.8625 51.4493 41.9219 51.5652 42.0409C51.7391 42.1599 51.7971 42.2788 51.913 42.5167C52.029 42.8736 52.087 43.171 52.2029 43.3494C52.2029 43.4089 52.2609 43.4684 52.2609 43.4684C52.3768 43.7063 52.4928 43.8848 52.7246 44.1227C52.7246 44.1227 52.7826 44.1227 52.7826 44.1822C52.9565 44.3606 53.2464 44.4796 53.5362 44.5985V43.4684V42.4572V40.9703C53.1884 40.8513 52.8986 40.7918 52.6087 40.6729C52.3188 40.5539 52.087 40.4349 51.8551 40.316C51.3913 40.0781 51.0435 39.7212 50.6957 39.3048C50.4058 38.8885 50.2899 38.2937 50.2899 37.6394C50.2899 36.7472 50.5797 35.974 51.1594 35.4387C51.7391 34.8439 52.4928 34.5465 53.5942 34.4275V33.6543C53.7681 33.4758 53.8841 33.2379 53.942 33C54 33 54.058 33 54.1159 33C54.4058 33 54.5797 33.2379 54.5797 33.6543V34.487C55.1014 34.5465 55.6232 34.6654 55.971 34.8439C56.3768 35.0223 56.6667 35.2602 56.9565 35.6171C57.1884 35.855 57.3623 36.1524 57.4783 36.4498C57.5942 36.7472 57.6522 36.9851 57.6522 37.223C57.6522 37.5204 57.5362 37.6989 57.3623 37.8773C57.1884 38.0558 56.9565 38.1747 56.7246 38.1747C56.2029 38.1747 55.913 37.9368 55.7391 37.342C55.5652 36.6877 55.1594 36.2714 54.5217 36.0335V39.1859C55.1594 39.3643 55.6812 39.5428 56.029 39.6617C56.3768 39.8401 56.7246 40.0186 57.0145 40.316C57.0725 40.3755 57.1304 40.4349 57.1884 40.4944C57.3623 40.6729 57.4783 40.8513 57.5942 41.0297C57.6522 41.1487 57.7101 41.2082 57.7681 41.3271C57.942 41.7435 58 42.1599 58 42.6357ZM56.9565 42.9926C56.6667 42.9926 56.3768 42.9926 56.1449 42.9331V42.8736C56.1449 42.3978 56.029 42.1004 55.7391 41.803C55.6812 41.7435 55.6812 41.7435 55.6232 41.684C55.3913 41.4461 54.9855 41.3271 54.5217 41.1487V42.5762V42.6357V44.539C55.0435 44.4796 55.4493 44.2416 55.7391 43.9442C56.029 43.6468 56.1449 43.29 56.1449 42.8736C56.3768 42.9926 56.6667 42.9926 56.9565 42.9926ZM53.5362 38.8885V35.9145C53.0725 36.0335 52.7826 36.2119 52.4928 36.4498C52.2609 36.6877 52.1449 36.9851 52.1449 37.4015C52.1449 37.8178 52.2609 38.1152 52.4928 38.3532C52.7246 38.5316 53.0725 38.71 53.5362 38.8885Z" fill="#2ED88E"/>
<path d="M56.1449 42.8736V42.9331C56.3768 42.9926 56.6667 42.9926 56.9565 42.9926C56.6667 42.9926 56.3768 42.9926 56.1449 42.8736ZM56.1449 42.8736C56.1449 42.3978 56.029 42.1004 55.7391 41.803C55.6812 41.7435 55.6812 41.7435 55.6232 41.684C55.3913 41.4461 54.9855 41.3271 54.5217 41.1487V42.5762V42.6357V44.539C55.0435 44.4796 55.4493 44.2416 55.7391 43.9442C56.029 43.6468 56.1449 43.29 56.1449 42.8736ZM58 42.6357C58 42.7546 58 42.8141 58 42.9331C57.942 43.4089 57.8261 43.8848 57.5942 44.3011C57.3043 44.8364 56.8986 45.2528 56.3768 45.5502C55.8551 45.9071 55.2174 46.0855 54.5217 46.145V48.1078C54.5217 48.4052 54.4638 48.6431 54.4638 48.7621C54.4058 48.881 54.2899 49 54.058 49C53.8841 49 53.7681 48.9405 53.6522 48.8216C53.5942 48.7026 53.5362 48.5242 53.5362 48.2862V46.145C52.9565 46.0855 52.4348 45.9071 51.971 45.7286C51.7971 45.6691 51.6232 45.5502 51.5072 45.4312C51.2754 45.3123 51.0435 45.1338 50.8696 44.8959C50.6957 44.7175 50.5797 44.539 50.4638 44.3606C50.3478 44.1822 50.2899 44.0632 50.2319 43.8848C50.1159 43.5279 50 43.171 50 42.8736C50 42.6357 50.058 42.4572 50.1739 42.2788C50.1739 42.2193 50.2319 42.2193 50.2899 42.1599C50.4638 41.9814 50.6377 41.9219 50.8696 41.8625C50.9275 41.8625 50.9275 41.8625 50.9855 41.8625C51.2174 41.8625 51.4493 41.9219 51.5652 42.0409C51.7391 42.1599 51.7971 42.2788 51.913 42.5167C52.029 42.8736 52.087 43.171 52.2029 43.3494C52.2029 43.4089 52.2609 43.4684 52.2609 43.4684C52.3768 43.7063 52.4928 43.8848 52.7246 44.1227C52.7246 44.1227 52.7826 44.1227 52.7826 44.1822C52.9565 44.3606 53.2464 44.4796 53.5362 44.5985V43.4684V42.4572V40.9703C53.1884 40.8513 52.8986 40.7918 52.6087 40.6729C52.3188 40.5539 52.087 40.4349 51.8551 40.316C51.3913 40.0781 51.0435 39.7212 50.6957 39.3048C50.4058 38.8885 50.2899 38.2937 50.2899 37.6394C50.2899 36.7472 50.5797 35.974 51.1594 35.4387C51.7391 34.8439 52.4928 34.5465 53.5942 34.4275V33.6543C53.7681 33.4758 53.8841 33.2379 53.942 33C54 33 54.058 33 54.1159 33C54.4058 33 54.5797 33.2379 54.5797 33.6543V34.487C55.1014 34.5465 55.6232 34.6654 55.971 34.8439C56.3768 35.0223 56.6667 35.2602 56.9565 35.6171C57.1884 35.855 57.3623 36.1524 57.4783 36.4498C57.5942 36.7472 57.6522 36.9851 57.6522 37.223C57.6522 37.5204 57.5362 37.6989 57.3623 37.8773C57.1884 38.0558 56.9565 38.1747 56.7246 38.1747C56.2029 38.1747 55.913 37.9368 55.7391 37.342C55.5652 36.6877 55.1594 36.2714 54.5217 36.0335V39.1859C55.1594 39.3643 55.6812 39.5428 56.029 39.6617C56.3768 39.8401 56.7246 40.0186 57.0145 40.316C57.0725 40.3755 57.1304 40.4349 57.1884 40.4944C57.3623 40.6729 57.4783 40.8513 57.5942 41.0297C57.6522 41.1487 57.7101 41.2082 57.7681 41.3271C57.942 41.7435 58 42.1599 58 42.6357ZM53.5362 38.8885V35.9145C53.0725 36.0335 52.7826 36.2119 52.4928 36.4498C52.2609 36.6877 52.1449 36.9851 52.1449 37.4015C52.1449 37.8178 52.2609 38.1152 52.4928 38.3532C52.7246 38.5316 53.0725 38.71 53.5362 38.8885Z" stroke="#2ED88E"/>
<path d="M53.5909 29.0723C53.5048 29.4167 53.4187 29.7612 53.0742 30.0195V29.9334C53.0742 29.4167 53.2464 29.1584 53.5909 29.0723Z" fill="black"/>
</svg>
