<svg width="67" height="65" viewBox="0 0 67 65" fill="none" xmlns="http://www.w3.org/2000/svg">
<path d="M44.0908 32.2607C44.0908 27.0989 39.8922 22.9004 34.7305 22.9004V25.5426V38.9788V41.621C39.8922 41.621 44.0908 37.4225 44.0908 32.2607Z" fill="white"/>
<path d="M43.1672 10.5586L51.0338 6.51368L51.0438 6.50852L51.0439 6.50864C52.1989 5.94728 53.565 6.18229 54.4629 7.07422L54.4642 7.07556L59.1884 11.8046C59.1886 11.8049 59.1888 11.8051 59.1891 11.8053C60.0914 12.7023 60.3195 14.075 59.761 15.2215L59.7608 15.2218L56.0282 22.8684L63.3509 25.2382L63.3298 25.1959L64.4902 25.5988C65.6931 26.0164 66.5002 27.1492 66.5002 28.4192V35.0834C66.5002 36.3553 65.6936 37.4859 64.4951 37.9013L43.1672 10.5586ZM43.1672 10.5586L40.3948 2.51455C40.3947 2.51433 40.3946 2.51411 40.3946 2.5139C39.9821 1.30983 38.8512 0.5 37.5761 0.5H35.5884H35.0884V1V3.64216V4.17244L35.6177 4.1413L37.0725 4.05572L39.9098 12.2903L39.9101 12.2913C40.1894 13.0968 40.8008 13.7475 41.588 14.0722C42.3824 14.4017 43.2754 14.3726 44.0421 13.9952L44.0421 13.9952L44.0465 13.993L52.1506 9.9032L56.3279 13.9475L52.5019 21.7855C52.128 22.5509 52.0983 23.4432 52.4255 24.233C52.752 25.0213 53.3994 25.6338 54.2065 25.9136L54.2065 25.9137L54.2127 25.9157L62.8664 28.7893L62.9624 34.5852L54.7013 37.4542L54.701 37.4543C53.8977 37.7338 53.2501 38.343 52.9233 39.1292C52.5961 39.9163 52.6229 40.8085 52.9967 41.5767L52.9966 41.5767L52.9994 41.5822L57.0682 49.6893L53.0235 53.8715L45.2154 50.0462C45.2153 50.0462 45.2153 50.0462 45.2152 50.0462C44.4517 49.6718 43.5598 49.6427 42.7711 49.9664C41.9815 50.2905 41.3664 50.9411 41.0866 51.748L41.0865 51.748L41.0846 51.7539L38.2156 60.3726H35.5859H35.0859V60.8726V63.5148V64.0148H35.5859H38.5761C39.8504 64.0148 40.982 63.2082 41.3947 62.0055L41.3947 62.0055L41.3973 61.9975L44.1312 53.568L51.7458 57.2996L51.7487 57.301C52.8993 57.8557 54.2659 57.6278 55.165 56.7286L59.8888 52.0049C59.8892 52.0044 59.8896 52.004 59.89 52.0036C60.797 51.1045 61.026 49.7287 60.4637 48.5836L60.4638 48.5836L60.4601 48.5764L56.4347 40.7006M43.1672 10.5586L56.4347 40.7006M56.4347 40.7006L64.4947 37.9014L56.4347 40.7006Z" fill="white" stroke="white"/>
<path d="M30.1407 4.14411H30.6407V3.64411V1.00195V0.501953H30.1407H27.4789C24.9723 0.501953 22.9323 2.54199 22.9323 5.04853V18.2593C22.9323 19.2969 22.0875 20.1417 21.05 20.1417H16.487C15.7921 18.6046 14.2572 17.524 12.4544 17.524C10.004 17.524 8.01562 19.5153 8.01562 21.9628C8.01562 24.4105 10.0066 26.4015 12.4544 26.4015C14.2574 26.4015 15.7919 25.3186 16.4868 23.7838H21.05C24.0956 23.7838 26.5745 21.3077 26.5745 18.2593V5.04853C26.5745 4.55016 26.9805 4.14411 27.4789 4.14411H30.1407Z" fill="#2ED88E" stroke="#2ED88E"/>
<path d="M30.1407 64.018H30.6407V63.518V60.8758V60.3758H30.1407H27.4789C26.9805 60.3758 26.5745 59.9698 26.5745 59.4714V46.6846C26.5745 43.6386 24.0954 41.1626 21.05 41.1626H16.487C15.7921 39.6255 14.2572 38.5449 12.4544 38.5449C10.004 38.5449 8.01562 40.5361 8.01562 42.9837C8.01562 45.4314 10.0066 47.4224 12.4544 47.4224C14.2574 47.4224 15.7919 46.3395 16.4868 44.8047H21.05C22.0879 44.8047 22.9323 45.6498 22.9323 46.6846V59.4714C22.9323 61.978 24.9723 64.018 27.4789 64.018H30.1407Z" fill="#2ED88E" stroke="#2ED88E"/>
<path d="M23.152 34.0801H23.652V33.5801V30.938V30.438H23.152H8.9738C8.27845 28.9006 6.74127 27.8203 4.93873 27.8203C2.48836 27.8203 0.5 29.8115 0.5 32.259C0.5 34.7068 2.49102 36.6978 4.93873 36.6978C6.74149 36.6978 8.27832 35.6152 8.97361 34.0801H23.152Z" fill="#2ED88E" stroke="#2ED88E"/>
</svg>
