<svg width="82" height="63" viewBox="0 0 82 63" fill="none" xmlns="http://www.w3.org/2000/svg">
<mask id="path-1-outside-1_2272_20868" maskUnits="userSpaceOnUse" x="0" y="0" width="82" height="63" fill="black">
<rect fill="white" width="82" height="63"/>
<path d="M10.4156 1C8.31559 1 6.60001 2.71246 6.60001 4.81243V17.6651C6.60001 17.8745 6.68126 18.0745 6.83126 18.2213C6.97813 18.3682 7.17813 18.4494 7.38438 18.4494C7.59375 18.4494 7.79062 18.3651 7.9375 18.2182C8.08438 18.0713 8.16563 17.8713 8.16563 17.6651V4.81243C8.16563 3.55309 9.15625 2.56246 10.4187 2.56246L71.5836 2.55934C72.846 2.55934 73.8398 3.54996 73.8398 4.80931V30.3714C73.8398 30.8026 74.1898 31.1495 74.6179 31.1495C75.0492 31.1495 75.396 30.7995 75.396 30.3714V4.81251C75.396 2.71253 73.6805 1.00007 71.5805 1.00007L10.4156 1ZM3.98436 20.6342C2.34374 20.6342 1 21.9748 1 23.6154V57.4182C1 59.0557 2.34686 60.4026 3.98436 60.4026L29.8808 60.4057C31.5215 60.4057 32.8652 59.0588 32.8652 57.4213V23.6153C32.8652 21.9778 31.5184 20.6341 29.8808 20.6341L3.98436 20.6342ZM3.98436 22.1935L29.8808 22.1966C30.6808 22.1966 31.3027 22.8185 31.3027 23.6185V57.4212C31.3027 58.2212 30.6839 58.8431 29.8808 58.8431L3.98436 58.8399C3.18437 58.8399 2.56254 58.2181 2.56254 57.4181V23.6153C2.56254 22.8153 3.18129 22.1935 3.98436 22.1935ZM14.2282 26.7622V26.7653C14.0189 26.7653 13.822 26.8465 13.6751 26.9934C13.5282 27.1403 13.447 27.3403 13.447 27.5465C13.447 27.9778 13.797 28.3278 14.2282 28.3278H19.6406H19.6375C19.8469 28.3278 20.0438 28.2465 20.1906 28.0997C20.3406 27.9528 20.4219 27.7559 20.4219 27.5465C20.4219 27.3403 20.3406 27.1403 20.1938 26.9934C20.0469 26.8465 19.8469 26.7622 19.6375 26.7653L14.2282 26.7622ZM64.8092 33.3405C63.5061 33.3405 62.4342 34.4123 62.4342 35.7155V59.2056C62.4342 60.5087 63.5061 61.5838 64.8092 61.5838H78.6219C79.925 61.5838 81 60.5087 81 59.2056V35.7155C81 34.4124 79.925 33.3405 78.6219 33.3405H64.8092ZM64.8092 34.8998H78.6219C79.0875 34.8998 79.4343 35.253 79.4343 35.7154V59.2055C79.4343 59.668 79.0875 60.018 78.6219 60.018H64.8092C64.3436 60.018 63.9936 59.668 63.9936 59.2055V35.7154C63.9936 35.2529 64.3436 34.8998 64.8092 34.8998ZM69.8373 38.3967H69.8405C69.6311 38.3967 69.4311 38.481 69.2873 38.6279C69.1405 38.7748 69.0592 38.9748 69.0592 39.181C69.0592 39.6123 69.4092 39.9623 69.8404 39.9623H73.5966C74.0248 39.9592 74.3748 39.6123 74.3748 39.181C74.3748 38.9748 74.2935 38.7748 74.1466 38.6279C73.9998 38.481 73.8029 38.3967 73.5966 38.3967H69.8373ZM35.8313 44.815C35.597 44.8181 35.3751 44.9275 35.2282 45.115C35.2251 45.1181 35.222 45.1212 35.2188 45.1275C35.1876 45.1681 35.1595 45.2119 35.1345 45.2587C35.1313 45.2712 35.1251 45.2806 35.122 45.29C35.1032 45.3337 35.0876 45.3775 35.0751 45.4244C35.0688 45.4556 35.0657 45.4837 35.0626 45.515C35.0595 45.54 35.0532 45.5681 35.0501 45.5962V45.5994V45.6056C35.0532 45.6525 35.0595 45.6994 35.0688 45.7431C35.0688 45.7525 35.0688 45.7619 35.072 45.7712C35.1501 46.1275 35.4657 46.3837 35.8313 46.3837H49.9344L53.6125 55.8364H35.8311C35.7655 55.8395 35.703 55.8458 35.6405 55.8645C35.6217 55.8708 35.5999 55.877 35.5811 55.8833C35.5405 55.8958 35.503 55.9114 35.4655 55.9333C35.4436 55.9427 35.4217 55.9583 35.3999 55.9708C35.3686 55.9927 35.3405 56.0177 35.3124 56.0427C35.2905 56.0614 35.2717 56.0802 35.253 56.102C35.228 56.127 35.2061 56.1583 35.1874 56.1864C35.1717 56.2083 35.1561 56.2333 35.1436 56.2552C35.1249 56.2958 35.1061 56.3364 35.0936 56.377C35.0874 56.3958 35.0811 56.4114 35.0749 56.4301C35.0592 56.4926 35.0499 56.5583 35.0499 56.6208C35.0499 56.6833 35.0592 56.7458 35.0749 56.8051C35.0811 56.8301 35.0905 56.8551 35.0999 56.877C35.1124 56.9145 35.128 56.952 35.1436 56.9864C35.1561 57.0051 35.1686 57.027 35.1842 57.0489C35.2061 57.0833 35.2311 57.1145 35.2592 57.1458C35.2749 57.1614 35.2905 57.177 35.3061 57.1926C35.3374 57.2208 35.3686 57.2458 35.403 57.2676C35.4248 57.2833 35.4436 57.2958 35.4655 57.3083C35.5061 57.327 35.5436 57.3426 35.5842 57.3551C35.603 57.3645 35.6217 57.3708 35.6405 57.377C35.703 57.3926 35.7655 57.402 35.8311 57.402H60.6748C61.106 57.402 61.4529 57.052 61.456 56.6208C61.456 56.4145 61.3748 56.2145 61.2279 56.0676C61.081 55.9208 60.881 55.8395 60.6748 55.8364H55.2905L51.6092 46.3773H59.4622V46.3804C59.6685 46.3804 59.8685 46.2961 60.0154 46.1492C60.1622 46.0023 60.2466 45.8023 60.2466 45.5961C60.2435 45.3867 60.1622 45.1898 60.0154 45.043C59.8685 44.8961 59.6685 44.8148 59.4622 44.8148L35.8313 44.815Z"/>
</mask>
<path d="M10.4156 1C8.31559 1 6.60001 2.71246 6.60001 4.81243V17.6651C6.60001 17.8745 6.68126 18.0745 6.83126 18.2213C6.97813 18.3682 7.17813 18.4494 7.38438 18.4494C7.59375 18.4494 7.79062 18.3651 7.9375 18.2182C8.08438 18.0713 8.16563 17.8713 8.16563 17.6651V4.81243C8.16563 3.55309 9.15625 2.56246 10.4187 2.56246L71.5836 2.55934C72.846 2.55934 73.8398 3.54996 73.8398 4.80931V30.3714C73.8398 30.8026 74.1898 31.1495 74.6179 31.1495C75.0492 31.1495 75.396 30.7995 75.396 30.3714V4.81251C75.396 2.71253 73.6805 1.00007 71.5805 1.00007L10.4156 1ZM3.98436 20.6342C2.34374 20.6342 1 21.9748 1 23.6154V57.4182C1 59.0557 2.34686 60.4026 3.98436 60.4026L29.8808 60.4057C31.5215 60.4057 32.8652 59.0588 32.8652 57.4213V23.6153C32.8652 21.9778 31.5184 20.6341 29.8808 20.6341L3.98436 20.6342ZM3.98436 22.1935L29.8808 22.1966C30.6808 22.1966 31.3027 22.8185 31.3027 23.6185V57.4212C31.3027 58.2212 30.6839 58.8431 29.8808 58.8431L3.98436 58.8399C3.18437 58.8399 2.56254 58.2181 2.56254 57.4181V23.6153C2.56254 22.8153 3.18129 22.1935 3.98436 22.1935ZM14.2282 26.7622V26.7653C14.0189 26.7653 13.822 26.8465 13.6751 26.9934C13.5282 27.1403 13.447 27.3403 13.447 27.5465C13.447 27.9778 13.797 28.3278 14.2282 28.3278H19.6406H19.6375C19.8469 28.3278 20.0438 28.2465 20.1906 28.0997C20.3406 27.9528 20.4219 27.7559 20.4219 27.5465C20.4219 27.3403 20.3406 27.1403 20.1938 26.9934C20.0469 26.8465 19.8469 26.7622 19.6375 26.7653L14.2282 26.7622ZM64.8092 33.3405C63.5061 33.3405 62.4342 34.4123 62.4342 35.7155V59.2056C62.4342 60.5087 63.5061 61.5838 64.8092 61.5838H78.6219C79.925 61.5838 81 60.5087 81 59.2056V35.7155C81 34.4124 79.925 33.3405 78.6219 33.3405H64.8092ZM64.8092 34.8998H78.6219C79.0875 34.8998 79.4343 35.253 79.4343 35.7154V59.2055C79.4343 59.668 79.0875 60.018 78.6219 60.018H64.8092C64.3436 60.018 63.9936 59.668 63.9936 59.2055V35.7154C63.9936 35.2529 64.3436 34.8998 64.8092 34.8998ZM69.8373 38.3967H69.8405C69.6311 38.3967 69.4311 38.481 69.2873 38.6279C69.1405 38.7748 69.0592 38.9748 69.0592 39.181C69.0592 39.6123 69.4092 39.9623 69.8404 39.9623H73.5966C74.0248 39.9592 74.3748 39.6123 74.3748 39.181C74.3748 38.9748 74.2935 38.7748 74.1466 38.6279C73.9998 38.481 73.8029 38.3967 73.5966 38.3967H69.8373ZM35.8313 44.815C35.597 44.8181 35.3751 44.9275 35.2282 45.115C35.2251 45.1181 35.222 45.1212 35.2188 45.1275C35.1876 45.1681 35.1595 45.2119 35.1345 45.2587C35.1313 45.2712 35.1251 45.2806 35.122 45.29C35.1032 45.3337 35.0876 45.3775 35.0751 45.4244C35.0688 45.4556 35.0657 45.4837 35.0626 45.515C35.0595 45.54 35.0532 45.5681 35.0501 45.5962V45.5994V45.6056C35.0532 45.6525 35.0595 45.6994 35.0688 45.7431C35.0688 45.7525 35.0688 45.7619 35.072 45.7712C35.1501 46.1275 35.4657 46.3837 35.8313 46.3837H49.9344L53.6125 55.8364H35.8311C35.7655 55.8395 35.703 55.8458 35.6405 55.8645C35.6217 55.8708 35.5999 55.877 35.5811 55.8833C35.5405 55.8958 35.503 55.9114 35.4655 55.9333C35.4436 55.9427 35.4217 55.9583 35.3999 55.9708C35.3686 55.9927 35.3405 56.0177 35.3124 56.0427C35.2905 56.0614 35.2717 56.0802 35.253 56.102C35.228 56.127 35.2061 56.1583 35.1874 56.1864C35.1717 56.2083 35.1561 56.2333 35.1436 56.2552C35.1249 56.2958 35.1061 56.3364 35.0936 56.377C35.0874 56.3958 35.0811 56.4114 35.0749 56.4301C35.0592 56.4926 35.0499 56.5583 35.0499 56.6208C35.0499 56.6833 35.0592 56.7458 35.0749 56.8051C35.0811 56.8301 35.0905 56.8551 35.0999 56.877C35.1124 56.9145 35.128 56.952 35.1436 56.9864C35.1561 57.0051 35.1686 57.027 35.1842 57.0489C35.2061 57.0833 35.2311 57.1145 35.2592 57.1458C35.2749 57.1614 35.2905 57.177 35.3061 57.1926C35.3374 57.2208 35.3686 57.2458 35.403 57.2676C35.4248 57.2833 35.4436 57.2958 35.4655 57.3083C35.5061 57.327 35.5436 57.3426 35.5842 57.3551C35.603 57.3645 35.6217 57.3708 35.6405 57.377C35.703 57.3926 35.7655 57.402 35.8311 57.402H60.6748C61.106 57.402 61.4529 57.052 61.456 56.6208C61.456 56.4145 61.3748 56.2145 61.2279 56.0676C61.081 55.9208 60.881 55.8395 60.6748 55.8364H55.2905L51.6092 46.3773H59.4622V46.3804C59.6685 46.3804 59.8685 46.2961 60.0154 46.1492C60.1622 46.0023 60.2466 45.8023 60.2466 45.5961C60.2435 45.3867 60.1622 45.1898 60.0154 45.043C59.8685 44.8961 59.6685 44.8148 59.4622 44.8148L35.8313 44.815Z" fill="#2ED88E"/>
<path d="M10.4156 1C8.31559 1 6.60001 2.71246 6.60001 4.81243V17.6651C6.60001 17.8745 6.68126 18.0745 6.83126 18.2213C6.97813 18.3682 7.17813 18.4494 7.38438 18.4494C7.59375 18.4494 7.79062 18.3651 7.9375 18.2182C8.08438 18.0713 8.16563 17.8713 8.16563 17.6651V4.81243C8.16563 3.55309 9.15625 2.56246 10.4187 2.56246L71.5836 2.55934C72.846 2.55934 73.8398 3.54996 73.8398 4.80931V30.3714C73.8398 30.8026 74.1898 31.1495 74.6179 31.1495C75.0492 31.1495 75.396 30.7995 75.396 30.3714V4.81251C75.396 2.71253 73.6805 1.00007 71.5805 1.00007L10.4156 1ZM3.98436 20.6342C2.34374 20.6342 1 21.9748 1 23.6154V57.4182C1 59.0557 2.34686 60.4026 3.98436 60.4026L29.8808 60.4057C31.5215 60.4057 32.8652 59.0588 32.8652 57.4213V23.6153C32.8652 21.9778 31.5184 20.6341 29.8808 20.6341L3.98436 20.6342ZM3.98436 22.1935L29.8808 22.1966C30.6808 22.1966 31.3027 22.8185 31.3027 23.6185V57.4212C31.3027 58.2212 30.6839 58.8431 29.8808 58.8431L3.98436 58.8399C3.18437 58.8399 2.56254 58.2181 2.56254 57.4181V23.6153C2.56254 22.8153 3.18129 22.1935 3.98436 22.1935ZM14.2282 26.7622V26.7653C14.0189 26.7653 13.822 26.8465 13.6751 26.9934C13.5282 27.1403 13.447 27.3403 13.447 27.5465C13.447 27.9778 13.797 28.3278 14.2282 28.3278H19.6406H19.6375C19.8469 28.3278 20.0438 28.2465 20.1906 28.0997C20.3406 27.9528 20.4219 27.7559 20.4219 27.5465C20.4219 27.3403 20.3406 27.1403 20.1938 26.9934C20.0469 26.8465 19.8469 26.7622 19.6375 26.7653L14.2282 26.7622ZM64.8092 33.3405C63.5061 33.3405 62.4342 34.4123 62.4342 35.7155V59.2056C62.4342 60.5087 63.5061 61.5838 64.8092 61.5838H78.6219C79.925 61.5838 81 60.5087 81 59.2056V35.7155C81 34.4124 79.925 33.3405 78.6219 33.3405H64.8092ZM64.8092 34.8998H78.6219C79.0875 34.8998 79.4343 35.253 79.4343 35.7154V59.2055C79.4343 59.668 79.0875 60.018 78.6219 60.018H64.8092C64.3436 60.018 63.9936 59.668 63.9936 59.2055V35.7154C63.9936 35.2529 64.3436 34.8998 64.8092 34.8998ZM69.8373 38.3967H69.8405C69.6311 38.3967 69.4311 38.481 69.2873 38.6279C69.1405 38.7748 69.0592 38.9748 69.0592 39.181C69.0592 39.6123 69.4092 39.9623 69.8404 39.9623H73.5966C74.0248 39.9592 74.3748 39.6123 74.3748 39.181C74.3748 38.9748 74.2935 38.7748 74.1466 38.6279C73.9998 38.481 73.8029 38.3967 73.5966 38.3967H69.8373ZM35.8313 44.815C35.597 44.8181 35.3751 44.9275 35.2282 45.115C35.2251 45.1181 35.222 45.1212 35.2188 45.1275C35.1876 45.1681 35.1595 45.2119 35.1345 45.2587C35.1313 45.2712 35.1251 45.2806 35.122 45.29C35.1032 45.3337 35.0876 45.3775 35.0751 45.4244C35.0688 45.4556 35.0657 45.4837 35.0626 45.515C35.0595 45.54 35.0532 45.5681 35.0501 45.5962V45.5994V45.6056C35.0532 45.6525 35.0595 45.6994 35.0688 45.7431C35.0688 45.7525 35.0688 45.7619 35.072 45.7712C35.1501 46.1275 35.4657 46.3837 35.8313 46.3837H49.9344L53.6125 55.8364H35.8311C35.7655 55.8395 35.703 55.8458 35.6405 55.8645C35.6217 55.8708 35.5999 55.877 35.5811 55.8833C35.5405 55.8958 35.503 55.9114 35.4655 55.9333C35.4436 55.9427 35.4217 55.9583 35.3999 55.9708C35.3686 55.9927 35.3405 56.0177 35.3124 56.0427C35.2905 56.0614 35.2717 56.0802 35.253 56.102C35.228 56.127 35.2061 56.1583 35.1874 56.1864C35.1717 56.2083 35.1561 56.2333 35.1436 56.2552C35.1249 56.2958 35.1061 56.3364 35.0936 56.377C35.0874 56.3958 35.0811 56.4114 35.0749 56.4301C35.0592 56.4926 35.0499 56.5583 35.0499 56.6208C35.0499 56.6833 35.0592 56.7458 35.0749 56.8051C35.0811 56.8301 35.0905 56.8551 35.0999 56.877C35.1124 56.9145 35.128 56.952 35.1436 56.9864C35.1561 57.0051 35.1686 57.027 35.1842 57.0489C35.2061 57.0833 35.2311 57.1145 35.2592 57.1458C35.2749 57.1614 35.2905 57.177 35.3061 57.1926C35.3374 57.2208 35.3686 57.2458 35.403 57.2676C35.4248 57.2833 35.4436 57.2958 35.4655 57.3083C35.5061 57.327 35.5436 57.3426 35.5842 57.3551C35.603 57.3645 35.6217 57.3708 35.6405 57.377C35.703 57.3926 35.7655 57.402 35.8311 57.402H60.6748C61.106 57.402 61.4529 57.052 61.456 56.6208C61.456 56.4145 61.3748 56.2145 61.2279 56.0676C61.081 55.9208 60.881 55.8395 60.6748 55.8364H55.2905L51.6092 46.3773H59.4622V46.3804C59.6685 46.3804 59.8685 46.2961 60.0154 46.1492C60.1622 46.0023 60.2466 45.8023 60.2466 45.5961C60.2435 45.3867 60.1622 45.1898 60.0154 45.043C59.8685 44.8961 59.6685 44.8148 59.4622 44.8148L35.8313 44.815Z" stroke="#2ED88E" stroke-width="2" mask="url(#path-1-outside-1_2272_20868)"/>
<path d="M10.4187 3.06246H10.4187L71.5836 3.05934C72.5713 3.05934 73.3398 3.82746 73.3398 4.80931V30.3714C73.3398 31.0801 73.915 31.6495 74.6179 31.6495C75.3266 31.6495 75.896 31.0744 75.896 30.3714V4.81251C75.896 2.43586 73.9561 0.500074 71.5805 0.500074L10.4156 0.5C8.03998 0.5 6.10001 2.43578 6.10001 4.81243V17.6651C6.10001 18.0036 6.23159 18.3329 6.47957 18.5767C6.72151 18.8177 7.04849 18.9494 7.38438 18.9494C7.7304 18.9494 8.0533 18.8095 8.29104 18.5718L7.9375 18.2182L8.29105 18.5718C8.53319 18.3296 8.66563 18.0018 8.66563 17.6651V4.81243C8.66563 3.82968 9.43194 3.06246 10.4187 3.06246ZM29.8808 60.9057H29.8808C31.798 60.9057 33.3652 59.3346 33.3652 57.4213V23.6153C33.3652 21.701 31.7938 20.1341 29.8808 20.1341L3.98436 20.1342C2.06828 20.1342 0.5 21.698 0.5 23.6154V57.4182C0.5 59.3318 2.07069 60.9025 3.9843 60.9026C3.98432 60.9026 3.98434 60.9026 3.98436 60.9026L29.8808 60.9057ZM29.8808 22.6966H29.8808C30.4047 22.6966 30.8027 23.0946 30.8027 23.6185V57.4212C30.8027 57.9458 30.4071 58.343 29.8809 58.3431C29.8809 58.3431 29.8809 58.3431 29.8808 58.3431L3.98442 58.3399H3.98436C3.46052 58.3399 3.06254 57.9419 3.06254 57.4181V23.6153C3.06254 23.0908 3.45811 22.6935 3.9843 22.6935C3.98432 22.6935 3.98435 22.6935 3.98436 22.6935L29.8808 22.6966ZM64.8092 32.8405C63.23 32.8405 61.9342 34.1362 61.9342 35.7155V59.2056C61.9342 60.784 63.229 62.0838 64.8092 62.0838H78.6219C80.2011 62.0838 81.5 60.7849 81.5 59.2056V35.7155C81.5 34.1354 80.2003 32.8405 78.6219 32.8405H64.8092ZM64.8092 35.3998H78.6219C78.8075 35.3998 78.9343 35.5253 78.9343 35.7154V59.2055C78.9343 59.3932 78.8101 59.518 78.6219 59.518H64.8092C64.6185 59.518 64.4936 59.3906 64.4936 59.2055V35.7154C64.4936 35.5278 64.621 35.3998 64.8092 35.3998Z" fill="white" stroke="white"/>
</svg>
