<svg width="75" height="60" viewBox="0 0 75 60" fill="none" xmlns="http://www.w3.org/2000/svg">
<path d="M70.5143 39.8278V40.2791L70.9377 40.3225C73.0128 41.0991 74.5 43.0767 74.5 45.3975C74.5 52.7376 68.5287 58.7125 61.185 58.7125H13.815C6.47489 58.7125 0.5 52.7412 0.5 45.3975C0.5 43.0557 2.01429 41.0633 4.1189 40.3017L4.44876 40.1823V39.8316V9.87002C4.44876 4.69861 8.64737 0.5 13.8188 0.5H21.7125C22.5398 0.5 23.185 1.14269 23.185 1.97249C23.185 2.79977 22.5423 3.44498 21.7125 3.44498H13.8188C10.2675 3.44498 7.39753 6.31492 7.39753 9.86623V39.4725V39.9725H7.89753H24.0441C25.4906 39.9725 26.8626 40.5481 27.8761 41.5617L29.4844 43.1699C29.9457 43.6774 30.5939 43.9175 31.2273 43.9175H43.7396C44.3968 43.9175 45.0348 43.6176 45.4735 43.1789L47.0901 41.5623C48.1045 40.5514 49.4769 39.9725 50.9228 39.9725H67.0693H67.5693V39.4725V29.6025C67.5693 28.7752 68.212 28.13 69.0418 28.13C69.8691 28.13 70.5143 28.7727 70.5143 29.6025V39.8278ZM13.7743 55.7638H61.096H61.1443V55.7636C66.8458 55.7376 71.466 51.1013 71.466 45.3937C71.466 44.0154 70.3768 42.9213 68.9935 42.9213H50.8745C50.2173 42.9213 49.5793 43.2211 49.1405 43.6598L47.5239 45.2764C46.5096 46.2873 45.1371 46.8662 43.6913 46.8662H31.1789C29.7324 46.8662 28.3605 46.2906 27.3469 45.277L25.7386 43.6688C25.2773 43.1613 24.6291 42.9213 23.9958 42.9213H5.87672C4.4984 42.9213 3.40424 44.0104 3.40424 45.3937C3.40424 51.1174 8.05056 55.7638 13.7743 55.7638Z" fill="white" stroke="white"/>
</svg>
