<svg width="164" height="45" viewBox="0 0 164 45" fill="none" xmlns="http://www.w3.org/2000/svg">
<path d="M0.353773 32.8306C0.353773 26.3747 4.3908 21.7766 10.3673 21.7766C14.728 21.7766 16.9083 24.6022 17.513 25.6902H17.7564V22.3006H20.9855V39.4895C20.9855 40.1363 21.3894 40.4573 22.0343 40.4573H23.0028V43.2803H20.9428C19.2066 43.2803 17.9144 41.9891 17.8743 40.174V39.9734H17.6309C17.1065 40.8208 15.1671 43.8068 10.6057 43.8068C4.58901 43.8068 0.348755 39.2463 0.348755 32.8331L0.353773 32.8306ZM17.8768 32.8732C17.8768 27.6684 14.6477 24.6824 10.7311 24.6824C6.61379 24.6824 3.62554 28.072 3.62554 32.8732C3.62554 37.6743 6.73423 40.9436 10.7712 40.9436C15.1721 40.9436 17.8768 37.2732 17.8768 32.8732Z" fill="#16303D" stroke="#16303D" stroke-width="1.24658" stroke-miterlimit="10"/>
<path d="M25.8304 39.3691L38.629 25.2464V25.0032H26.1917V22.3005H41.6147V26.2142L28.8162 40.3368V40.58H41.818V43.2827H25.8279V39.3691H25.8304Z" fill="#16303D" stroke="#16303D" stroke-width="1.24658" stroke-miterlimit="10"/>
<path d="M44.2416 32.8732C44.2416 26.1766 48.8457 21.7766 54.4157 21.7766C60.7561 21.7766 64.3891 26.2142 64.3891 32.5096V33.6805H47.5109C47.551 38.3613 50.2959 40.9838 54.6566 40.9838C57.6047 40.9838 60.3094 39.2889 60.9969 36.3832L64.1056 37.1102C62.9339 41.0239 59.4614 43.8068 54.6165 43.8068C48.236 43.8068 44.2391 39.329 44.2391 32.8732H44.2416ZM61.1199 31.0981C60.9191 26.7407 57.8907 24.6423 54.4183 24.6423C50.9458 24.6423 47.8371 27.1444 47.5937 31.0981H61.1199Z" fill="#16303D" stroke="#16303D" stroke-width="1.24658" stroke-miterlimit="10"/>
<path d="M68.0247 22.3006H71.2137V25.3668H71.4571C72.3453 23.4714 74.6059 21.7766 77.8777 21.7766C82.7627 21.7766 85.7108 25.4471 85.7108 30.0878V43.2803H82.5219V30.2883C82.5219 26.9388 80.058 24.7601 77.1124 24.7601C73.8005 24.7601 71.2162 27.3023 71.2162 30.7722V43.2803H68.0272V22.3006H68.0247Z" fill="#16303D" stroke="#16303D" stroke-width="1.24658" stroke-miterlimit="10"/>
<path d="M92.4902 37.3107V25.0057H88.5335V22.303H92.6934V16.2107H95.6817V22.303H102.142V25.0057H95.6817V37.2706C95.6817 39.5295 96.61 40.4973 98.8305 40.4973H101.859V43.2802H98.8707C95.0344 43.2802 92.4902 41.5453 92.4902 37.3082V37.3107Z" fill="#16303D" stroke="#16303D" stroke-width="1.24658" stroke-miterlimit="10"/>
<path d="M108.721 25.0058H104.764V22.3031H111.91V43.2828H108.721V25.0058ZM107.996 16.1682C107.996 14.877 108.964 13.8691 110.297 13.8691C111.629 13.8691 112.638 14.877 112.638 16.1682C112.638 17.4594 111.669 18.5073 110.297 18.5073C108.924 18.5073 107.996 17.4995 107.996 16.1682Z" fill="#16303D" stroke="#16303D" stroke-width="1.24658" stroke-miterlimit="10"/>
<path d="M116.271 32.7904C116.271 26.4549 120.995 21.7766 127.253 21.7766C133.51 21.7766 138.195 26.4975 138.195 32.7904C138.195 39.0833 133.51 43.8043 127.213 43.8043C120.915 43.8043 116.271 39.1636 116.271 32.7904ZM134.925 32.7904C134.925 28.1497 131.736 24.6799 127.213 24.6799C122.689 24.6799 119.54 28.1899 119.54 32.7904C119.54 37.391 122.729 40.901 127.213 40.901C131.696 40.901 134.925 37.4713 134.925 32.7904Z" fill="#16303D" stroke="#16303D" stroke-width="1.24658" stroke-miterlimit="10"/>
<path d="M142.299 28.6035V11.0837C142.299 5.43009 146.893 0.842037 152.549 0.842037V18.3619C152.549 24.0155 147.955 28.6035 142.299 28.6035Z" fill="#2ED88E"/>
<path d="M153.748 18.3594V0.839581C159.406 0.839581 163.997 5.43015 163.997 11.0812V28.6011C158.34 28.6011 153.748 24.0105 153.748 18.3594Z" fill="#2ED88E"/>
</svg>
