<svg width="1423" height="273" viewBox="0 0 1423 273" fill="none" xmlns="http://www.w3.org/2000/svg">
<g clip-path="url(#clip0_2723_1604)">
<path d="M283.792 168.428L227.475 296.84L337.867 297.883L283.792 168.428Z" fill="#2ED88E"/>
<path d="M379.548 297.883L435.866 169.471L325.474 168.428L379.548 297.883Z" fill="#2ED88E"/>
<path d="M479.783 168.428L423.473 296.84L533.858 297.883L479.783 168.428Z" fill="#2ED88E"/>
<path d="M183.558 297.883L239.868 169.471L129.483 168.428L183.558 297.883Z" fill="#2ED88E"/>
<path d="M127.217 129.948L168.219 34.155L209.22 129.948H238.04L182.629 0.5H153.809L98.3975 129.948H127.217Z" fill="#2ED88E"/>
<path d="M238.916 129.948L279.918 34.155L320.92 129.948H349.739L294.328 0.5H265.508L210.097 129.948H238.916Z" fill="#2ED88E"/>
<path d="M-96.1803 129.948L-55.1787 34.155L-14.1771 129.948H14.6425L-40.7689 0.5H-69.5886L-125 129.948H-96.1803Z" fill="#2ED88E"/>
<path d="M15.5189 129.948L56.5205 34.155L97.5221 129.948H126.342L70.9303 0.5H42.1107L-13.3008 129.948H15.5189Z" fill="#2ED88E"/>
<path d="M725 3.5H693V296.5H725V3.5Z" fill="#2ED88E"/>
<path d="M791 3.5H758V296.5H791V3.5Z" fill="#2ED88E"/>
<path d="M857 3.5H824V296.5H857V3.5Z" fill="#2ED88E"/>
<path d="M951.615 83.3398L930.174 132.223L972.195 132.616L951.615 83.3398Z" fill="#2ED88E"/>
<path d="M1090.11 83.3398L1068.68 132.223L1110.69 132.616L1090.11 83.3398Z" fill="#2ED88E"/>
<path d="M1228.61 83.3398L1207.18 132.223L1249.19 132.616L1228.61 83.3398Z" fill="#2ED88E"/>
<path d="M1367.11 83.3398L1345.67 132.223L1387.69 132.616L1367.11 83.3398Z" fill="#2ED88E"/>
<path d="M910.183 132.618L951.185 36.8324L992.186 132.618H1021.01L965.594 3.16992H936.775L881.363 132.618H910.183Z" fill="#2ED88E"/>
<path d="M1048.68 132.618L1089.69 36.8324L1130.69 132.618H1159.5L1104.1 3.16992H1075.28L1019.87 132.618H1048.68Z" fill="#2ED88E"/>
<path d="M1187.18 132.618L1228.18 36.8324L1269.18 132.618H1298L1242.59 3.16992H1213.77L1158.37 132.618H1187.18Z" fill="#2ED88E"/>
<path d="M1325.68 132.618L1366.68 36.8324L1407.68 132.618H1436.5L1381.09 3.16992H1352.27L1296.86 132.618H1325.68Z" fill="#2ED88E"/>
<path d="M879.709 297.595C879.777 297.595 879.837 297.595 879.905 297.595C916.7 297.595 946.524 269.028 946.524 233.786C946.524 198.543 916.7 169.977 879.905 169.977C879.837 169.977 879.777 169.977 879.709 169.977V297.579V297.595Z" fill="#2ED88E"/>
<path d="M1014.17 169.992C1014.1 169.992 1014.04 169.992 1013.97 169.992C977.18 169.992 947.355 198.558 947.355 233.801C947.355 269.044 977.18 297.61 1013.97 297.61C1014.04 297.61 1014.1 297.61 1014.17 297.61V170.007V169.992Z" fill="#2ED88E"/>
<path d="M1430.93 169.992C1430.93 195.368 1413.5 213.794 1389.49 213.794C1365.48 213.794 1348.29 195.783 1348.29 169.992H1324.22C1324.22 208.131 1351.67 235.805 1389.49 235.805C1427.31 235.805 1455 207.511 1455 169.992H1430.93Z" fill="#2ED88E"/>
<path d="M1348.29 299.532C1348.29 274.156 1365.72 255.729 1389.73 255.729C1413.73 255.729 1430.93 273.74 1430.93 299.532H1455C1455 261.393 1427.55 233.719 1389.73 233.719C1351.9 233.719 1324.22 262.013 1324.22 299.532H1348.29Z" fill="#2ED88E"/>
<path d="M1098.4 298.245C1098.4 298.056 1098.4 297.867 1098.4 297.678C1098.4 262.367 1068.52 233.74 1031.65 233.74C1031.58 233.74 1031.52 233.74 1031.45 233.74V298.237H1098.39L1098.4 298.245Z" fill="#2ED88E"/>
<path d="M1098.44 298.245C1098.44 298.056 1098.44 297.867 1098.44 297.678C1098.44 262.367 1128.32 233.74 1165.19 233.74C1165.26 233.74 1165.32 233.74 1165.39 233.74V298.237H1098.45L1098.44 298.245Z" fill="#2ED88E"/>
<path d="M1098.4 169.273C1098.4 169.462 1098.4 169.651 1098.4 169.841C1098.4 205.151 1068.52 233.778 1031.65 233.778C1031.58 233.778 1031.52 233.778 1031.45 233.778V169.281H1098.39L1098.4 169.273Z" fill="#2ED88E"/>
<path d="M1098.44 169.273C1098.44 169.462 1098.44 169.651 1098.44 169.841C1098.44 205.151 1128.32 233.778 1165.19 233.778C1165.26 233.778 1165.32 233.778 1165.39 233.778V169.281H1098.45L1098.44 169.273Z" fill="#2ED88E"/>
<path d="M1294.62 278.244C1320.34 252.49 1321.24 211.635 1296.63 186.994C1272.02 162.353 1231.21 163.255 1205.49 189.01C1179.76 214.764 1178.86 255.618 1203.47 280.26C1228.09 304.901 1268.89 303.999 1294.62 278.244Z" fill="#2ED88E"/>
<path d="M1287.89 233.62L1250.04 195.729L1212.2 233.62L1250.04 271.511L1287.89 233.62Z" fill="white"/>
<path d="M606.451 297.481C642.43 297.481 671.597 268.28 671.597 232.258C671.597 196.236 642.43 167.035 606.451 167.035C570.472 167.035 541.305 196.236 541.305 232.258C541.305 268.28 570.472 297.481 606.451 297.481Z" fill="#2ED88E"/>
<path d="M606.451 180.252C606.451 208.969 583.197 232.25 554.514 232.25C583.197 232.25 606.451 255.531 606.451 284.249C606.451 255.531 629.705 232.25 658.388 232.25C629.705 232.25 606.451 208.969 606.451 180.252Z" fill="white"/>
<path d="M109.794 244.002L130.284 232.161L109.794 220.313L121.621 199.792H97.9599V176.102L77.4629 187.943L65.6359 167.43L53.8015 187.943L33.3044 176.102V199.792H9.64299L21.4775 220.313L0.980469 232.154L21.4775 244.002L9.64299 264.523H33.3044V288.212L53.8015 276.364L65.6359 296.885L77.4629 276.364L97.9599 288.212V264.523H121.621L109.794 244.002Z" fill="#2ED88E"/>
<path d="M652.837 21.7932C640.995 9.78598 624.561 3.16992 606.564 3.16992C569.641 3.16992 541.803 31.1464 541.803 68.2417C541.803 105.337 568.946 133.306 606.337 133.306C643.729 133.306 671.099 105.337 671.099 68.2417C671.099 50.2309 664.611 33.7399 652.837 21.7932ZM647.301 68.2341C647.301 93.3222 630.074 111.537 606.337 111.537C582.6 111.537 565.6 93.7305 565.6 68.2341C565.6 42.7377 582.736 24.9311 606.337 24.9311C629.938 24.9311 647.301 43.146 647.301 68.2341Z" fill="#2ED88E"/>
<path d="M629.039 45.6106C623.269 39.7582 615.271 36.5371 606.503 36.5371C588.521 36.5371 574.957 50.1624 574.957 68.2261C574.957 86.2898 588.174 99.9151 606.39 99.9151C624.606 99.9151 637.936 86.2898 637.936 68.2261C637.936 59.4551 634.779 51.4176 629.039 45.603V45.6106ZM626.351 68.2337C626.351 80.4526 617.96 89.3219 606.397 89.3219C594.835 89.3219 586.557 80.6492 586.557 68.2337C586.557 55.8182 594.903 47.1455 606.397 47.1455C617.892 47.1455 626.351 56.0148 626.351 68.2337Z" fill="#2ED88E"/>
<path d="M362.45 3.61523H464.641C497.614 3.61523 524.38 30.4122 524.38 63.4244H422.189C389.216 63.4244 362.45 36.6275 362.45 3.61523Z" fill="#2ED88E"/>
<path d="M422.189 70.418H524.38C524.38 103.43 497.614 130.227 464.641 130.227H362.45C362.45 97.2149 389.216 70.418 422.189 70.418Z" fill="#2ED88E"/>
</g>
<defs>
<clipPath id="clip0_2723_1604">
<rect width="1440" height="272" fill="white" transform="translate(-17 0.5)"/>
</clipPath>
</defs>
</svg>
